<svg width="64" height="64" viewBox="0 0 64 64" fill="none" xmlns="http://www.w3.org/2000/svg">
<g clip-path="url(#clip0)">
<mask id="mask0" mask-type="alpha" maskUnits="userSpaceOnUse" x="-5" y="-4" width="73" height="73">
<path d="M-4.03711 -3.60584L67.7386 -3.60584L67.7386 68.5068L-4.03711 68.5068L-4.03711 -3.60584Z" fill="white"/>
</mask>
<g mask="url(#mask0)">
<path d="M32.1484 32L41.0957 50.4298C38.2081 51.8454 35.3612 52.5059 32.1484 52.5059V32Z" fill="#5D4784"/>
<path d="M32.1484 31.9999L48.232 44.624C46.2538 47.168 43.9831 49.0155 41.0957 50.4297L32.1484 31.9999Z" fill="#D24A53"/>
<path d="M32.1484 31.9999L52.1124 36.2628C51.4445 39.4205 50.21 42.0813 48.232 44.624L32.1484 31.9999Z" fill="#9A7F60"/>
<path d="M32.1484 31.9998L52.0359 27.3868C52.7582 30.5317 52.7804 33.1062 52.1125 36.2627L32.1484 31.9998Z" fill="#8EB935"/>
<path d="M32.1484 32L48.0101 19.0958C50.0309 21.6036 51.3121 24.2421 52.0359 27.387L32.1484 32Z" fill="#E27457"/>
<path d="M32.1484 32L40.7739 13.415C43.6858 14.7791 45.9878 16.5867 48.0101 19.0958L32.1484 32Z" fill="#6F4350"/>
<path d="M32.1484 32V11.4942C35.3612 11.4942 37.862 12.0508 40.7739 13.415L32.1484 32Z" fill="#357A7A"/>
<path d="M31.8067 11.6154C20.4032 11.6154 11.1256 20.7398 11.1256 31.9554C11.1256 43.1707 20.4032 52.2951 31.8067 52.2951C43.2107 52.2951 52.4879 43.1707 52.4879 31.9554C52.4879 20.7398 43.2107 11.6154 31.8067 11.6154ZM31.8067 52.5059C20.2875 52.5059 10.916 43.2867 10.916 31.9554C10.916 20.6238 20.2875 11.4046 31.8067 11.4046C43.3259 11.4046 52.6976 20.6238 52.6976 31.9554C52.6976 43.2867 43.3259 52.5059 31.8067 52.5059Z" fill="#231F20"/>
<path d="M6.11914 27.6134L6.78705 25.1755C6.93918 24.6211 7.14713 24.2058 7.4119 23.927C7.67568 23.6492 8.00664 23.4589 8.4028 23.3597C8.79877 23.2606 9.2366 23.277 9.7163 23.41C10.0497 23.5021 10.3354 23.6339 10.5712 23.8056C10.8071 23.9771 11.0045 24.1906 11.1614 24.445C11.3193 24.6982 11.4202 24.9526 11.4644 25.207C11.4981 25.3973 11.4981 25.6551 11.4632 25.9796C11.4295 26.3039 11.3865 26.5595 11.3354 26.7462L10.7465 28.8936L10.1067 28.7161L10.1507 28.5562C10.188 28.4196 10.202 28.3275 10.1914 28.2784C10.181 28.2295 10.1519 28.185 10.1067 28.1432C10.0694 28.1139 9.98008 28.0789 9.83832 28.0404L7.31082 27.3403C7.16926 27.3017 7.07495 27.2854 7.0297 27.2935C6.98324 27.3017 6.94376 27.3239 6.91127 27.3612C6.87757 27.3998 6.84168 27.4884 6.8034 27.6298L6.75914 27.7906L6.11914 27.6134ZM7.32597 26.115L10.2076 26.9121C10.3053 26.9387 10.3669 26.9505 10.3924 26.9457C10.4307 26.9365 10.4598 26.9167 10.4817 26.8864C10.5038 26.8548 10.5318 26.7742 10.5676 26.6424C10.6675 26.2783 10.6897 25.9784 10.634 25.7414C10.5794 25.5047 10.4446 25.2887 10.2321 25.0938C10.0205 24.8989 9.74302 24.7543 9.40148 24.6597C9.06474 24.5664 8.7559 24.5454 8.47358 24.5944C8.19246 24.6445 7.97634 24.7437 7.82541 24.8909C7.67568 25.0379 7.55605 25.2747 7.46653 25.6016L7.32597 26.115Z" fill="#231F20"/>
<path d="M7.84766 21.8326L9.73516 18.2804L11.3324 18.5126L11.2359 19.1706C10.9675 19.1474 10.734 19.1626 10.5331 19.2151C10.3333 19.2688 10.1718 19.3597 10.0476 19.4871C9.92337 19.6153 9.80833 19.7798 9.70146 19.9817L9.35654 20.6317L10.4122 21.1978L10.5261 20.9842C10.6108 20.8242 10.6575 20.7088 10.6633 20.6411C10.6702 20.5722 10.6551 20.5127 10.618 20.4614C10.5819 20.4111 10.489 20.3458 10.3415 20.2665L10.1812 20.1802L10.4693 19.6375L12.2627 20.6002L11.9746 21.1417L11.7909 21.0447C11.6679 20.977 11.5692 20.9444 11.4961 20.9422C11.4239 20.941 11.3637 20.9608 11.317 21.0005C11.2696 21.0413 11.1986 21.1487 11.1057 21.3226L11.0036 21.5153L11.9779 22.0379C12.0814 22.0928 12.1464 22.122 12.1743 22.1232C12.2022 22.1254 12.23 22.115 12.2581 22.0916C12.2858 22.0695 12.3253 22.0086 12.3775 21.9107L12.5669 21.5535C12.7087 21.2875 12.79 21.0425 12.8109 20.8186C12.8317 20.5944 12.7958 20.3657 12.7029 20.1311C12.6088 19.8965 12.4658 19.6784 12.273 19.4753L12.7609 19.0202L14.0373 20.424L12.0814 24.1035L11.4961 23.7896L11.5529 23.6833C11.6284 23.541 11.6691 23.4395 11.6749 23.38C11.6807 23.3205 11.6633 23.2668 11.6237 23.2189C11.5983 23.1931 11.5158 23.1418 11.374 23.0661L9.06725 21.828C8.94184 21.7615 8.85471 21.7252 8.80706 21.7228C8.75941 21.7182 8.71654 21.7298 8.67826 21.7566C8.63878 21.7825 8.59113 21.85 8.53411 21.9576L8.43323 22.1465L7.84766 21.8326Z" fill="#231F20"/>
<path d="M10.8359 16.609L12.4912 14.6754C12.7001 14.4314 12.8989 14.2495 13.0869 14.1303C13.2751 14.0113 13.4691 13.9366 13.6701 13.9088C13.8699 13.8795 14.066 13.8923 14.2588 13.9496C14.4504 14.0055 14.6247 14.1013 14.7792 14.2343C15.0904 14.5039 15.2485 14.8492 15.2531 15.2717C15.2577 15.693 15.0789 16.1154 14.7178 16.5389L14.1835 17.1623L14.8641 17.7504C14.9501 17.8249 15.0093 17.8648 15.0418 17.8718C15.0882 17.8858 15.1335 17.8822 15.1766 17.8636C15.2194 17.8447 15.2741 17.797 15.3403 17.7199L15.4994 17.5332L16.0034 17.9685L14.475 19.7539L13.9719 19.3186L14.0778 19.195C14.1707 19.0853 14.2253 19.0071 14.2391 18.9581C14.2543 18.909 14.2507 18.8625 14.2299 18.8168C14.2102 18.7726 14.1474 18.7037 14.0405 18.6115L12.0394 16.8832C11.9289 16.7877 11.8488 16.7304 11.8011 16.714C11.7537 16.6965 11.7082 16.6965 11.6653 16.713C11.6223 16.7304 11.5643 16.7817 11.4911 16.867L11.34 17.0443L10.8359 16.609ZM12.5817 15.7781L13.6143 16.6709L13.8814 16.3592C14.0451 16.1691 14.1452 16.0117 14.1823 15.8891C14.2194 15.7665 14.2206 15.6427 14.1857 15.5191C14.152 15.3943 14.0788 15.2845 13.9673 15.1888C13.8001 15.0441 13.6131 14.9939 13.4051 15.0395C13.2496 15.0722 13.0915 15.183 12.929 15.3721L12.5817 15.7781Z" fill="#231F20"/>
<path d="M15.5664 11.7312L16.4177 11.0674L19.8281 13.121C20.0115 13.2295 20.1403 13.2834 20.2159 13.2822C20.2926 13.281 20.3947 13.2295 20.5213 13.127L20.929 13.6544L19.1345 15.0536L18.7279 14.5262L18.835 14.4386C18.9337 14.3603 18.9939 14.2938 19.0126 14.2355C19.0324 14.1784 19.0276 14.1305 18.9975 14.0921C18.973 14.0594 18.9034 14.0055 18.7907 13.9298L18.4097 13.6718L17.2563 14.5704L17.412 15.0664C17.4457 15.1714 17.4724 15.2367 17.4922 15.2613C17.5153 15.2905 17.5456 15.3092 17.5851 15.3162C17.6246 15.3242 17.671 15.315 17.7267 15.2893C17.7639 15.2717 17.8511 15.2088 17.9916 15.1003L18.3982 15.6277L16.9299 16.7725L16.5234 16.245C16.6175 16.1715 16.6803 16.1096 16.7104 16.0595C16.7419 16.0093 16.7581 15.9568 16.7617 15.9019C16.7639 15.847 16.7477 15.7619 16.714 15.6463L15.5664 11.7312ZM17.0368 13.8703L17.7907 13.2834L16.6151 12.5236L17.0368 13.8703Z" fill="#231F20"/>
<path d="M19.207 9.11678L21.9168 7.9183C22.0922 7.84118 22.2896 7.77248 22.5103 7.71298C22.731 7.65209 22.9483 7.63947 23.1631 7.67312C23.3768 7.70697 23.5662 7.7853 23.7311 7.90889C23.8948 8.03268 24.0226 8.19834 24.1131 8.40487C24.2608 8.73979 24.2596 9.0643 24.1131 9.37819C23.9658 9.69087 23.7427 9.95108 23.4454 10.1588L24.8125 10.8158L24.8705 10.8461C24.961 10.8918 25.0378 10.9208 25.1016 10.9348C25.1656 10.9476 25.2236 10.9524 25.2795 10.9454C25.3339 10.9384 25.4037 10.9162 25.4896 10.8777L25.6788 10.7948L25.9474 11.4052L24.5396 12.0271L22.2954 10.7505L21.9295 10.9116L22.3151 11.7916C22.3813 11.9432 22.4325 12.0365 22.4674 12.0704C22.5021 12.103 22.5418 12.1217 22.5871 12.1263C22.6335 12.1299 22.7113 12.1064 22.8227 12.0576L23.0249 11.9688L23.2921 12.5792L21.141 13.5303L20.8738 12.9199L21.07 12.8336C21.1735 12.7869 21.2421 12.7436 21.2756 12.7028C21.3093 12.6607 21.3268 12.614 21.328 12.5604C21.328 12.5301 21.2989 12.4484 21.2397 12.3154L20.1525 9.8321C20.1094 9.73514 20.0711 9.66984 20.0376 9.63479C20.0039 9.60093 19.9655 9.58591 19.9248 9.58932C19.8634 9.58831 19.8006 9.60214 19.7354 9.63138L19.6473 9.67345L19.4834 9.74696L19.207 9.11678ZM21.1468 9.12379L21.6474 10.2662L22.299 9.97792C22.5546 9.86475 22.7356 9.75618 22.8425 9.65241C22.9483 9.54845 23.0145 9.43888 23.0389 9.3221C23.0644 9.20532 23.0492 9.08292 22.9936 8.95693C22.9436 8.84015 22.8692 8.75381 22.7729 8.69772C22.6764 8.64063 22.5649 8.61599 22.4371 8.62541C22.3095 8.63362 22.1201 8.69312 21.8703 8.80389L21.1468 9.12379Z" fill="#231F20"/>
<path d="M25.2108 6.55274L25.6568 6.4664L25.7346 6.61684L28.3911 6.10464L28.4178 5.93417L28.8672 5.84784L29.7686 7.39525L29.182 7.73719C28.9904 7.4874 28.8556 7.32755 28.7789 7.25524C28.628 7.11281 28.4655 7.00905 28.2912 6.94375C28.161 6.89467 28.038 6.88065 27.923 6.90289C27.8685 6.9133 27.8348 6.93313 27.8185 6.96338C27.8033 6.99263 27.8045 7.05452 27.8231 7.14667L28.3423 9.87032C28.3738 10.0302 28.3981 10.1305 28.4178 10.1692C28.4364 10.2076 28.4619 10.2357 28.4932 10.2543C28.5259 10.273 28.5665 10.2812 28.6152 10.28C28.664 10.2788 28.7918 10.2589 28.9986 10.2193L29.1228 10.8739L26.822 11.3174L26.6964 10.6628L26.8358 10.6359C26.9903 10.6055 27.0868 10.5776 27.1263 10.5496C27.1657 10.5227 27.1924 10.4819 27.2052 10.4294C27.2192 10.3757 27.211 10.273 27.1819 10.1189L26.6499 7.33456C26.635 7.25524 26.6162 7.20736 26.5941 7.19114C26.5722 7.17351 26.5315 7.1711 26.4735 7.18172C26.3561 7.20496 26.2342 7.27386 26.1064 7.39065C25.9798 7.50603 25.8754 7.65546 25.7928 7.83755C25.7603 7.90986 25.6975 8.10596 25.607 8.42687L24.9473 8.32531L25.2108 6.55274Z" fill="#231F20"/>
<path d="M30.3391 5.76642L32.5087 5.87619L33.1942 8.85184L34.2046 5.96252L36.4115 6.0745L36.3778 6.74094L36.1408 6.72912C36.012 6.72211 35.9224 6.74435 35.8702 6.79683C35.818 6.84811 35.7889 6.94847 35.7807 7.0979L35.6437 9.83217C35.6379 9.95236 35.6413 10.0271 35.6531 10.0585C35.6716 10.1052 35.6983 10.1391 35.7342 10.1589C35.7831 10.1893 35.8481 10.2068 35.9318 10.2102L36.2026 10.2242L36.1689 10.8906L33.8631 10.7738L33.8968 10.1074L34.0758 10.1168C34.2058 10.1228 34.2951 10.1168 34.3418 10.0994C34.388 10.0808 34.4241 10.0503 34.4487 10.0094C34.4718 9.96758 34.4869 9.88926 34.4927 9.77368L34.6414 6.81205L33.2719 10.7436L32.6086 10.7097L31.6725 6.78982L31.525 9.71659C31.5228 9.7843 31.532 9.83678 31.5541 9.87404C31.5762 9.9127 31.6087 9.94294 31.6528 9.96398C31.6971 9.98621 31.7678 9.99903 31.8665 10.0048L32.0966 10.0165L32.0629 10.6827L30.0977 10.5823L30.1314 9.9161L30.3239 9.92672C30.446 9.93253 30.5307 9.92552 30.576 9.90569C30.6226 9.88706 30.6575 9.8532 30.6818 9.80753C30.7062 9.76206 30.7213 9.67573 30.7283 9.54853L30.8629 6.84811C30.87 6.72452 30.8653 6.64399 30.8513 6.60553C30.8328 6.55425 30.8038 6.51559 30.7642 6.49115C30.7237 6.46551 30.6585 6.45029 30.568 6.44568L30.3054 6.43286L30.3391 5.76642Z" fill="#231F20"/>
<path d="M37.8397 6.43336L41.6586 7.65627L41.7192 9.276L41.0582 9.30044C41.0327 9.03102 40.9757 8.80226 40.8874 8.61437C40.7992 8.42648 40.6806 8.28305 40.5333 8.1837C40.3845 8.08454 40.2033 7.99941 39.9862 7.9305L39.2882 7.70655L38.9245 8.85254L39.1534 8.92606C39.3264 8.98195 39.4473 9.00658 39.5145 9.00057C39.583 8.99477 39.6387 8.96912 39.6817 8.92365C39.726 8.87818 39.7723 8.77542 39.8235 8.61437L39.8791 8.4405L40.4623 8.62719L39.8444 10.5736L39.2614 10.3869L39.3241 10.1874C39.3669 10.0532 39.3821 9.95066 39.3705 9.87815C39.3577 9.80583 39.3276 9.75095 39.28 9.71128C39.2321 9.67162 39.1149 9.62154 38.9267 9.56085L38.7213 9.49555L38.3856 10.5516C38.3497 10.6636 38.3334 10.7337 38.3367 10.7615C38.3403 10.7896 38.3553 10.8142 38.3822 10.8386C38.4099 10.8619 38.4761 10.8899 38.582 10.9238L38.9652 11.0464C39.2521 11.1385 39.5063 11.1748 39.7296 11.1549C39.9525 11.1351 40.1698 11.058 40.3833 10.9226C40.5947 10.7884 40.7841 10.6075 40.9466 10.3801L41.4799 10.7804L40.3381 12.2949L36.3809 11.0277L36.5828 10.3917L36.6979 10.429C36.85 10.4781 36.9569 10.5001 37.0161 10.4943C37.0753 10.4897 37.1253 10.4629 37.1648 10.415C37.1857 10.3857 37.2206 10.2936 37.2695 10.1408L38.0638 7.63764C38.1069 7.50123 38.1264 7.40889 38.1206 7.36101C38.1162 7.31434 38.0963 7.27348 38.0638 7.23962C38.0313 7.20577 37.9569 7.17092 37.8409 7.13466L37.6375 7.06936L37.8397 6.43336Z" fill="#231F20"/>
<path d="M43.4006 8.36935L45.0744 9.36951L44.8525 12.5108L45.7281 11.0313C45.8037 10.9039 45.8432 10.8212 45.849 10.7803C45.8571 10.7208 45.8502 10.6717 45.8282 10.6333C45.8049 10.5946 45.7457 10.547 45.6492 10.4887L45.4484 10.3683L45.7875 9.79538L47.4878 10.8108L47.1487 11.3849L46.9605 11.2715C46.8666 11.2156 46.7922 11.1864 46.7398 11.1841C46.6863 11.1817 46.6411 11.1958 46.603 11.2238C46.5657 11.2519 46.5087 11.3288 46.4355 11.4526L44.5377 14.6592L43.6897 14.1528L43.965 10.1828L42.7 12.3195C42.6282 12.4421 42.5887 12.5248 42.584 12.5669C42.5782 12.609 42.5887 12.652 42.6155 12.6941C42.642 12.7374 42.7024 12.7863 42.7967 12.8423L42.9941 12.9601L42.6537 13.5344L40.9473 12.5144L41.2864 11.9415L41.4631 12.0465C41.5617 12.1048 41.6339 12.1362 41.6792 12.142C41.7256 12.1469 41.7721 12.1338 41.8185 12.106C41.865 12.0767 41.9127 12.0209 41.9613 11.9379L43.3681 9.56081C43.4225 9.46987 43.4516 9.39616 43.4574 9.34267C43.4632 9.28779 43.455 9.24111 43.4319 9.20265C43.4098 9.16399 43.3599 9.12093 43.282 9.07425L43.0615 8.94225L43.4006 8.36935Z" fill="#231F20"/>
<path d="M48.5654 11.4914L48.8988 11.8017L48.8244 11.9535L50.8094 13.7996L50.9618 13.7191L51.2985 14.0318L50.5923 15.6783L49.9708 15.4065C50.0558 15.103 50.1044 14.8989 50.1172 14.795C50.1415 14.5884 50.129 14.3959 50.0777 14.2163C50.0404 14.0808 49.979 13.9735 49.8931 13.893C49.8524 13.8557 49.8153 13.8393 49.7826 13.8451C49.7491 13.8509 49.7013 13.8883 49.6375 13.9573L47.7629 15.9924C47.6525 16.1124 47.5875 16.1907 47.5677 16.2292C47.5478 16.2677 47.5398 16.3051 47.5444 16.3424C47.5478 16.3786 47.5654 16.4171 47.5957 16.4556C47.6246 16.4942 47.7175 16.5864 47.872 16.7288L47.4202 17.2188L45.7012 15.6201L46.152 15.1301L46.2564 15.2268C46.3713 15.3342 46.4514 15.3949 46.4967 15.4111C46.5421 15.4264 46.5898 15.4239 46.6408 15.4029C46.6909 15.3833 46.7684 15.3144 46.8753 15.2L48.7919 13.1191C48.8454 13.0599 48.8733 13.0166 48.8745 12.9885C48.8745 12.9605 48.8523 12.9268 48.8095 12.8858C48.7209 12.8043 48.5933 12.747 48.4249 12.7131C48.2564 12.6781 48.0754 12.6829 47.88 12.7237C47.8024 12.74 47.6082 12.8065 47.2984 12.9232L46.9882 12.3281L48.5654 11.4914Z" fill="#231F20"/>
<path d="M55.1934 19.7171C55.5547 20.3905 55.6428 21.0464 55.4582 21.6846C55.2734 22.3218 54.861 22.8141 54.2211 23.1609C53.7914 23.393 53.3581 23.5038 52.9225 23.4946C52.4871 23.4842 52.0887 23.3592 51.7284 23.1212C51.3674 22.883 51.0595 22.5271 50.8051 22.0521C50.4696 21.4256 50.3661 20.8188 50.4951 20.2329C50.6496 19.527 51.0735 18.9855 51.7667 18.611C52.4115 18.2618 53.0515 18.1885 53.6879 18.3892C54.3245 18.5909 54.8262 19.0332 55.1934 19.7171ZM54.5277 20.0929C54.3546 19.7708 54.0968 19.5795 53.7541 19.5188C53.3221 19.4429 52.8681 19.535 52.3896 19.793C51.9109 20.052 51.5917 20.3695 51.4324 20.7429C51.2976 21.065 51.3151 21.3835 51.4846 21.701C51.6555 22.0183 51.9109 22.2086 52.2512 22.2705C52.6565 22.3416 53.098 22.2482 53.5755 21.9904C53.91 21.8096 54.1666 21.6088 54.3419 21.3893C54.5185 21.169 54.6196 20.946 54.6451 20.7207C54.6694 20.4955 54.6312 20.2854 54.5277 20.0929Z" fill="#231F20"/>
<path d="M56.7238 23.1291L57.7809 26.9743L56.4497 27.9102L56.0744 27.3651C56.2626 27.2077 56.3986 27.0698 56.4834 26.9509C56.5683 26.8319 56.6309 26.7001 56.6704 26.5576C56.7101 26.4152 56.7214 26.2706 56.7077 26.1212C56.6959 26.0208 56.6576 25.8503 56.5914 25.6078L56.4335 25.0347L55.2069 25.3754L55.2871 25.6685C55.3172 25.7792 55.3579 25.8622 55.4089 25.9168C55.459 25.9707 55.5148 26.0044 55.575 26.0172C55.6366 26.03 55.7285 26.0196 55.8527 25.9845L56.0978 25.9168L56.2626 26.5168L54.1929 27.0909L54.028 26.4911L54.3265 26.4082C54.4124 26.385 54.474 26.3591 54.5089 26.3325C54.5566 26.2974 54.5925 26.2578 54.6158 26.2133C54.6389 26.169 54.6517 26.1212 54.6517 26.0721C54.6529 26.0232 54.6365 25.9391 54.604 25.8189L54.5332 25.5621L53.5611 25.8317C53.4439 25.8644 53.3683 25.896 53.3322 25.9275C53.2973 25.9589 53.2754 25.9998 53.2684 26.0488C53.2602 26.0989 53.2742 26.1877 53.3079 26.3137L53.3601 26.504L52.7201 26.6812L52.0977 24.4127L52.7377 24.2354L52.7781 24.3859C52.8246 24.5527 52.8768 24.6579 52.9338 24.6975C52.9919 24.7384 53.086 24.7406 53.216 24.7046L55.8759 23.967C55.9979 23.9331 56.0756 23.9005 56.1093 23.8688C56.1442 23.8386 56.1652 23.7967 56.1721 23.7441C56.1791 23.6916 56.164 23.5958 56.1257 23.457L56.0838 23.3066L56.7238 23.1291Z" fill="#231F20"/>
<path d="M10.2208 33.8373L10.8189 36.0906L10.1835 36.2611L10.1291 36.0533C10.0988 35.9401 10.0663 35.8654 10.0326 35.8292C9.99769 35.7943 9.95702 35.7733 9.90937 35.7675C9.86192 35.7615 9.76661 35.7767 9.62486 35.8152L8.82456 36.0299L9.27056 37.7115L10.1301 37.4804C10.2359 37.4525 10.3055 37.4269 10.3392 37.4034C10.3869 37.372 10.4148 37.3321 10.424 37.2845C10.4321 37.2378 10.4182 37.142 10.3799 36.9984L10.3334 36.8233L10.9687 36.6533L11.5692 38.9136L10.934 39.0839L10.8827 38.8948C10.849 38.7664 10.8165 38.6846 10.784 38.6488C10.7527 38.6125 10.7145 38.5913 10.6692 38.5855C10.6237 38.5799 10.525 38.5973 10.3741 38.6382L7.8837 39.3056C7.73038 39.3465 7.63408 39.3837 7.5946 39.4166C7.55513 39.4502 7.5318 39.4913 7.52502 39.539C7.51665 39.5869 7.53419 39.6872 7.57486 39.8425L7.61095 39.9743L6.97434 40.1445L6.37501 37.8854L7.01023 37.7149L7.04991 37.8634C7.08699 38.0022 7.12288 38.0943 7.15777 38.1376C7.19266 38.1817 7.23333 38.2065 7.28098 38.2145C7.32744 38.2227 7.42733 38.2053 7.58065 38.1644L8.55281 37.9042L8.10561 36.2224L7.13464 36.4828C6.98132 36.5247 6.88721 36.5561 6.85352 36.5796C6.80348 36.6158 6.77696 36.6601 6.77098 36.7104C6.76639 36.7616 6.78274 36.8574 6.81982 36.9972L6.8605 37.1526L6.22508 37.3229L5.62695 35.0694L6.26237 34.8991L6.30304 35.052C6.33673 35.1804 6.37143 35.2679 6.40751 35.3122C6.4424 35.3578 6.48308 35.3847 6.52714 35.3929C6.5724 35.4011 6.66072 35.3869 6.7955 35.3508L9.2915 34.6822C9.44721 34.6401 9.5459 34.6039 9.58897 34.5724C9.63084 34.541 9.65736 34.5011 9.66892 34.4556C9.68068 34.4102 9.67012 34.3296 9.64001 34.2142L9.58538 34.0077L10.2208 33.8373Z" fill="#231F20"/>
<path d="M11.5856 39.3051L12.6926 41.3553L12.1142 41.6706L12.0049 41.4687C11.9551 41.3763 11.9086 41.3168 11.8656 41.2888C11.8225 41.2621 11.7762 41.2503 11.725 41.2549C11.674 41.2597 11.5856 41.2958 11.4602 41.3647L9.93738 42.1932C9.65406 42.3484 9.45768 42.4918 9.34862 42.6251C9.24055 42.7593 9.18014 42.9039 9.16977 43.0591C9.15921 43.2144 9.19868 43.374 9.2882 43.5387C9.37633 43.7045 9.49616 43.8293 9.64469 43.9145C9.79462 43.9998 9.94555 44.0359 10.0977 44.0242C10.251 44.0124 10.4693 43.9297 10.7528 43.7755L12.4312 42.8608C12.501 42.8234 12.5462 42.7873 12.566 42.7523C12.5927 42.7066 12.6032 42.6587 12.5985 42.611C12.5949 42.576 12.5624 42.5013 12.501 42.3871L12.4126 42.2246L12.991 41.9097L13.9273 43.6436L13.3487 43.9587L13.2757 43.8223C13.2036 43.6881 13.1501 43.6098 13.1164 43.5866C13.0666 43.5503 13.0132 43.5353 12.9551 43.5377C12.9167 43.5377 12.8295 43.5747 12.6938 43.6495L11.0455 44.5471C10.7413 44.7127 10.4637 44.8073 10.2093 44.8305C9.86421 44.8607 9.54141 44.784 9.24175 44.6007C8.94209 44.4175 8.69346 44.141 8.49488 43.7744C8.35552 43.5154 8.26959 43.2623 8.23809 43.0149C8.20678 42.7661 8.22313 42.5257 8.28693 42.2923C8.35073 42.059 8.44843 41.8665 8.57962 41.7158C8.70981 41.5654 8.93511 41.4033 9.25451 41.2293L10.8703 40.3495C11.0176 40.269 11.1081 40.2095 11.143 40.1696C11.1767 40.13 11.1943 40.0869 11.1952 40.0402C11.1952 39.9923 11.1675 39.9178 11.1117 39.8127L11.0072 39.62L11.5856 39.3051Z" fill="#231F20"/>
<path d="M14.2008 44.1841L15.6585 45.7757L14.087 48.356L16.7969 47.0187L18.2789 48.6372L17.7956 49.0843L17.6355 48.9104C17.5494 48.8169 17.4704 48.7704 17.3984 48.7704C17.3253 48.7704 17.2348 48.8205 17.1267 48.9207L15.1405 50.7575C15.0534 50.8383 15.0033 50.8929 14.9906 50.9234C14.9708 50.9701 14.9674 51.0121 14.9778 51.0516C14.9918 51.1067 15.0267 51.165 15.0825 51.2255L15.2647 51.424L14.7804 51.8721L13.2311 50.181L13.7154 49.7329L13.8362 49.8647C13.9231 49.9607 13.9905 50.0178 14.036 50.0376C14.0812 50.0574 14.1277 50.061 14.1729 50.048C14.2182 50.0352 14.2834 49.9909 14.3669 49.9138L16.5192 47.9243L12.8349 49.7482L12.3889 49.2616L14.4367 45.8376L12.3099 47.8039C12.2611 47.8484 12.231 47.8929 12.2204 47.9347C12.2101 47.9768 12.2123 48.0211 12.2286 48.0667C12.2447 48.1132 12.2856 48.1715 12.3518 48.244L12.5061 48.4131L12.0218 48.8602L10.7012 47.4189L11.1855 46.972L11.3157 47.1132C11.398 47.203 11.462 47.2569 11.5084 47.2755C11.5537 47.2939 11.6014 47.2951 11.6502 47.2789C11.7003 47.2637 11.7698 47.2136 11.8615 47.1283L13.8232 45.315C13.9139 45.2309 13.9674 45.1714 13.9825 45.1351C14.0056 45.0863 14.0114 45.0384 13.9999 44.9915C13.9895 44.9463 13.9534 44.89 13.893 44.8247L13.7165 44.6322L14.2008 44.1841Z" fill="#231F20"/>
<path d="M19.6754 49.4515L20.5628 50.0491L19.7067 53.9107C19.6614 54.1172 19.6522 54.2558 19.6766 54.3284C19.7009 54.3995 19.781 54.4802 19.917 54.5675L19.5512 55.1172L17.6812 53.8592L18.047 53.3108L18.1631 53.3843C18.2666 53.4532 18.3477 53.4892 18.4081 53.4892C18.4685 53.4892 18.5116 53.4706 18.5383 53.4298C18.5602 53.3959 18.5894 53.3142 18.6242 53.1836L18.7473 52.7425L17.5464 51.9348L17.1305 52.2359C17.0434 52.3014 16.9911 52.3469 16.9738 52.3737C16.9529 52.404 16.9459 52.439 16.9505 52.4775C16.9563 52.5173 16.9796 52.5594 17.0213 52.6035C17.048 52.6327 17.1339 52.6958 17.2792 52.794L16.9132 53.3434L15.3848 52.3142L15.7506 51.7658C15.8483 51.8311 15.9261 51.8707 15.9829 51.8847C16.0387 51.8976 16.0934 51.8976 16.1456 51.8825C16.1978 51.8683 16.2722 51.8263 16.3697 51.7575L19.6754 49.4515ZM18.133 51.509L18.9169 52.0364L19.2619 50.6899L18.133 51.509Z" fill="#231F20"/>
<path d="M21.9966 51.0189L23.79 51.7318L24.0652 54.8395L24.6902 53.2546C24.7434 53.118 24.7704 53.0306 24.768 52.991C24.7668 52.9315 24.7528 52.8846 24.7249 52.8498C24.697 52.8159 24.6308 52.7774 24.5275 52.7366L24.3126 52.6502L24.5542 52.0363L26.3765 52.761L26.1351 53.3762L25.9329 53.2955C25.8318 53.2546 25.7553 53.2384 25.7028 53.2442C25.6506 53.2514 25.6089 53.271 25.5752 53.3049C25.5427 53.3375 25.5009 53.4214 25.4474 53.5559L24.0943 56.9912L23.1847 56.6296L22.8328 52.7027L21.9302 54.9923C21.8782 55.1241 21.8537 55.2118 21.8549 55.2537C21.8561 55.2958 21.8734 55.3354 21.9059 55.3739C21.9384 55.4113 22.0048 55.4498 22.1057 55.4893L22.317 55.5734L22.0756 56.1886L20.2461 55.4614L20.4889 54.8463L20.6771 54.921C20.7828 54.963 20.8584 54.9829 20.9036 54.9805C20.9501 54.9773 20.993 54.9584 21.0336 54.9234C21.0743 54.8883 21.1126 54.8254 21.1475 54.7369L22.1509 52.1893C22.1894 52.0914 22.208 52.0155 22.2044 51.9618C22.201 51.9079 22.1858 51.8638 22.1581 51.8288C22.1302 51.7949 22.0744 51.7611 21.9908 51.7272L21.7538 51.6337L21.9966 51.0189Z" fill="#231F20"/>
<path d="M31.8795 53.4371L32.1618 55.0674L31.5124 55.198C31.3312 54.8002 31.1152 54.5014 30.862 54.304C30.6088 54.1057 30.3323 53.995 30.0314 53.9703C29.8364 53.9553 29.6807 53.9833 29.5623 54.0545C29.4439 54.1246 29.3811 54.2095 29.3729 54.3077C29.3649 54.4184 29.4078 54.527 29.5019 54.631C29.5936 54.7337 29.7703 54.8341 30.0326 54.9308L30.9225 55.2692C31.4161 55.4546 31.761 55.6766 31.9574 55.9356C32.1512 56.1956 32.235 56.4887 32.2092 56.812C32.1767 57.2238 31.9863 57.5599 31.638 57.8179C31.2488 58.1038 30.7831 58.2252 30.2418 58.1819C29.991 58.1621 29.7621 58.1108 29.5565 58.0303C29.351 57.9485 29.1394 57.8225 28.9223 57.6509L28.7459 57.9814L28.2406 57.9403L28.0488 56.0674L28.6958 55.9634C28.8166 56.351 29.0246 56.6836 29.3207 56.9602C29.6169 57.2368 29.9537 57.3895 30.3323 57.4199C30.502 57.4327 30.6449 57.4223 30.761 57.3885C30.876 57.3546 30.9655 57.3009 31.0281 57.2274C31.0907 57.1551 31.1256 57.0768 31.1316 56.9952C31.142 56.8586 31.0861 56.7362 30.9619 56.6289C30.8365 56.5203 30.6112 56.4045 30.2846 56.2821L29.5113 55.9881C29.3938 55.9438 29.2359 55.8667 29.0383 55.7557C28.841 55.6461 28.6912 55.5354 28.5901 55.4232C28.4879 55.3124 28.4067 55.1736 28.3473 55.0079C28.2869 54.8411 28.265 54.6694 28.2787 54.4921C28.2986 54.2387 28.3858 54.0124 28.5425 53.8105C28.698 53.6086 28.9211 53.4523 29.2116 53.3425C29.5019 53.2328 29.8167 53.1909 30.1558 53.2178C30.5658 53.2504 30.9282 53.387 31.2419 53.6272L31.394 53.3986L31.8795 53.4371Z" fill="#231F20"/>
<path d="M32.5312 53.4944L36.4711 52.996L37.1969 54.4266L36.6127 54.7243C36.4779 54.4931 36.3318 54.3111 36.1747 54.1792C36.0167 54.0474 35.8507 53.9681 35.6776 53.9401C35.5034 53.9132 35.3048 53.9132 35.0819 53.9411L34.3605 54.0324L34.5093 55.2157L34.7461 55.1852C34.924 55.163 35.0424 55.1339 35.1016 55.1001C35.1598 55.0662 35.1991 55.0206 35.2188 54.9611C35.2398 54.9028 35.2386 54.7896 35.2188 54.6251L35.1957 54.4441L35.7986 54.3683L36.0494 56.3767L35.4477 56.4526L35.4222 56.2483C35.4047 56.1095 35.3758 56.0103 35.3351 55.9508C35.2944 55.8901 35.2444 55.8527 35.1853 55.8374C35.1261 55.8212 34.9993 55.826 34.8053 55.8505L34.5916 55.8773L34.7286 56.9672C34.7439 57.0838 34.7579 57.1527 34.7716 57.1761C34.7868 57.2006 34.8113 57.217 34.8448 57.2262C34.8797 57.2356 34.9519 57.2332 35.0599 57.2204L35.4559 57.1703C35.7508 57.1329 35.9948 57.0581 36.1876 56.9472C36.3792 56.8366 36.5431 56.6755 36.6789 56.4654C36.8137 56.2553 36.9078 56.0137 36.96 55.7419L37.6058 55.8773L37.2062 57.7176L33.1248 58.2344L33.0432 57.5788L33.1607 57.5633C33.3186 57.5437 33.4233 57.5193 33.4755 57.4886C33.5265 57.4596 33.559 57.4153 33.5754 57.3556C33.5822 57.3207 33.5754 57.2238 33.5556 57.0652L33.2317 54.4827C33.2141 54.3415 33.1932 54.2516 33.1689 54.2107C33.1443 54.17 33.1106 54.1418 33.0668 54.1256C33.0237 54.1091 32.9424 54.1079 32.8227 54.1234L32.6136 54.15L32.5312 53.4944Z" fill="#231F20"/>
<path d="M37.1309 52.9226L39.8849 51.9074C40.0625 51.8419 40.2611 51.7858 40.484 51.7406C40.7059 51.6961 40.922 51.6961 41.131 51.7428C41.3401 51.7894 41.5235 51.8792 41.6783 52.0124C41.8326 52.1442 41.9488 52.3159 42.0254 52.5258C42.1498 52.8665 42.1298 53.1874 41.965 53.4873C41.8001 53.7884 41.5642 54.0311 41.2564 54.2178L42.5679 54.9532L42.6235 54.987C42.7094 55.0371 42.784 55.072 42.8454 55.0886C42.9082 55.1058 42.9662 55.113 43.0209 55.1106C43.0753 55.107 43.1463 55.0896 43.2332 55.0569L43.4262 54.9858L43.6527 55.6064L42.2216 56.134L40.0822 54.73L39.7116 54.8678L40.038 55.7618C40.0938 55.9157 40.1379 56.0102 40.1704 56.0465C40.2029 56.0816 40.2413 56.1026 40.2866 56.1094C40.3309 56.1152 40.4096 56.098 40.5237 56.0569L40.728 55.9812L40.9545 56.602L38.7697 57.4072L38.5421 56.7875L38.7418 56.7129C38.8475 56.6743 38.9173 56.6358 38.9532 56.5974C38.9891 56.5587 39.009 56.5122 39.0148 56.4595C39.016 56.4305 38.9914 56.3476 38.9428 56.2122L38.0205 53.6892C37.9844 53.59 37.9507 53.5235 37.9194 53.4873C37.8881 53.4512 37.852 53.4338 37.8101 53.4338C37.7509 53.429 37.6871 53.4394 37.6209 53.4641L37.5316 53.5003L37.3643 53.562L37.1309 52.9226ZM39.0473 53.051L39.4711 54.212L40.1343 53.967C40.3947 53.8713 40.5805 53.7755 40.6919 53.6798C40.8036 53.5842 40.8754 53.4791 40.9067 53.3649C40.9396 53.2505 40.9324 53.1301 40.8847 53.0007C40.8417 52.8829 40.7743 52.793 40.6826 52.7311C40.5909 52.668 40.4818 52.6378 40.3552 52.6378C40.2274 52.639 40.038 52.6856 39.7838 52.7802L39.0473 53.051Z" fill="#231F20"/>
<path d="M41.666 51.2697L43.5593 50.0294L43.9182 50.5836L43.859 50.6231C43.7381 50.7014 43.665 50.7563 43.6383 50.7879C43.6103 50.8194 43.5966 50.8576 43.593 50.9033C43.5894 50.9488 43.5988 50.9874 43.6197 51.0201C43.6464 51.0608 43.7208 51.1285 43.8462 51.2242L45.844 52.7552L45.269 50.2182C45.2401 50.0935 45.2133 50.0119 45.1876 49.9733C45.1527 49.9196 45.1099 49.8915 45.0588 49.8903C45.0078 49.8881 44.9228 49.9254 44.8068 50.0013L44.6836 50.0828L44.3247 49.5288L45.8671 48.5194L46.226 49.0723C46.0982 49.1564 46.0218 49.2265 45.9973 49.2836C45.9588 49.3721 45.9612 49.5228 46.0055 49.7365L46.8125 53.6025L45.9159 54.1895L42.6882 51.88C42.558 51.7879 42.4685 51.733 42.4199 51.7166C42.371 51.6994 42.3154 51.697 42.2548 51.7096C42.1934 51.7226 42.1168 51.7611 42.0249 51.823L41.666 51.2697Z" fill="#231F20"/>
<path d="M45.9121 48.3293L47.6032 46.733L48.054 47.2137L47.9007 47.3596C47.8112 47.4437 47.7589 47.5078 47.745 47.5509C47.731 47.5941 47.7322 47.6398 47.751 47.6863C47.7683 47.7341 47.8227 47.8067 47.9122 47.9022L49.7148 49.8288C49.8123 49.934 49.8809 49.9957 49.9204 50.0157C49.96 50.0343 50.0007 50.0365 50.0414 50.0237C50.0948 50.0111 50.1562 49.9712 50.226 49.9059L50.4096 49.7321L50.86 50.214L49.1679 51.8115L48.7171 51.3298L48.8555 51.2002C48.953 51.1066 49.011 51.0389 49.0274 50.997C49.0447 50.954 49.0459 50.9107 49.0309 50.8662C49.0168 50.8232 48.9667 50.7555 48.881 50.6631L47.0713 48.7297C46.9704 48.6211 46.897 48.557 46.8506 48.5358C46.8053 48.515 46.7565 48.5114 46.7066 48.5244C46.6707 48.5336 46.6079 48.5803 46.5172 48.6644L46.3629 48.8112L45.9121 48.3293Z" fill="#231F20"/>
<path d="M49.9806 43.7667L50.2733 43.3805L51.9156 44.0445L51.6787 44.6631C51.2269 44.5848 50.876 44.5685 50.6288 44.6138C50.2849 44.6793 50.0225 44.8333 49.8388 45.0749C49.7053 45.251 49.6297 45.4529 49.6112 45.6819C49.5926 45.9092 49.6449 46.1414 49.7669 46.376C49.8889 46.6117 50.0769 46.8265 50.3325 47.0214C50.7217 47.3178 51.134 47.4707 51.5708 47.4777C52.0075 47.4857 52.3524 47.3224 52.6056 46.9875C52.7659 46.7752 52.8598 46.5244 52.8865 46.2347C52.9226 45.8754 52.8809 45.509 52.7623 45.138L53.3941 44.9535C53.5592 45.5126 53.63 45.9605 53.6045 46.3C53.565 46.8231 53.3826 47.3004 53.0574 47.7309C52.7866 48.0892 52.4569 48.347 52.0667 48.5069C51.6763 48.6655 51.263 48.7146 50.8238 48.6529C50.3859 48.5898 49.9852 48.4206 49.6215 48.1429C49.2593 47.8663 48.9933 47.5314 48.8224 47.1357C48.6518 46.7401 48.5925 46.3339 48.646 45.9174C48.6982 45.5008 48.8597 45.1146 49.1281 44.7586C49.4022 44.3969 49.717 44.1379 50.0759 43.9814L49.9806 43.7667Z" fill="#231F20"/>
<path d="M50.5703 42.9737L52.2511 39.3595L53.8435 39.5055L53.7829 40.1613C53.5157 40.1519 53.2846 40.1788 53.0896 40.2429C52.8956 40.306 52.7399 40.4039 52.6239 40.5371C52.5077 40.6713 52.4022 40.8394 52.3067 41.0447L51.9988 41.7052L53.0747 42.2103L53.1756 41.9924C53.2509 41.83 53.2906 41.7134 53.2928 41.6457C53.2964 41.578 53.2777 41.5195 53.2396 41.4706C53.1999 41.4227 53.106 41.3632 52.9549 41.2919L52.7912 41.215L53.049 40.6631L54.8737 41.5207L54.6171 42.0727L54.431 41.9852C54.3044 41.9257 54.2058 41.8977 54.1338 41.9001C54.0618 41.9035 54.0026 41.9257 53.9583 41.9678C53.9133 42.0098 53.8503 42.1194 53.7667 42.2969L53.6762 42.493L54.6669 42.9573C54.7726 43.0076 54.8388 43.032 54.8655 43.032C54.8934 43.0332 54.9201 43.0214 54.9468 42.997C54.9736 42.9725 55.0096 42.9106 55.0561 42.8113L55.2246 42.4485C55.3512 42.1767 55.4184 41.9303 55.4277 41.7076C55.4357 41.4846 55.3883 41.2605 55.2838 41.0331C55.1791 40.8068 55.026 40.5978 54.825 40.4073L55.2826 39.9314L56.6206 41.2523L54.8783 44.9961L54.2825 44.7159L54.3324 44.6085C54.3997 44.4627 54.4346 44.3611 54.437 44.3016C54.4404 44.2421 54.4207 44.1908 54.379 44.1454C54.3523 44.1209 54.2674 44.0741 54.1232 44.0063L51.7759 42.9048C51.6493 42.8451 51.561 42.8149 51.5134 42.8137C51.4669 42.8125 51.424 42.8267 51.3882 42.8546C51.3509 42.8826 51.3066 42.9515 51.2558 43.0613L51.1661 43.2536L50.5703 42.9737Z" fill="#231F20"/>
<path d="M53.3614 34.9455L55.0072 34.8884L55.0467 35.5534C54.6296 35.6784 54.3056 35.8535 54.0757 36.0774C53.8456 36.3016 53.6981 36.5618 53.6331 36.8583C53.5912 37.0496 53.5972 37.2096 53.6505 37.3368C53.7041 37.4638 53.7794 37.5385 53.8748 37.5596C53.9838 37.584 54.0955 37.556 54.2105 37.4756C54.3253 37.3985 54.4484 37.2365 54.5797 36.9889L55.0361 36.1512C55.2871 35.6842 55.5531 35.3727 55.8352 35.2117C56.1187 35.0553 56.4184 35.012 56.7332 35.0809C57.1352 35.1708 57.4406 35.4066 57.6472 35.7882C57.8751 36.2153 57.9307 36.6948 57.8146 37.2282C57.76 37.4756 57.6787 37.696 57.5694 37.8897C57.4613 38.0824 57.3082 38.2749 57.1094 38.4674L57.4105 38.6891L57.3012 39.1875L55.4275 39.1198L55.4149 38.4616C55.8133 38.3951 56.1686 38.2328 56.4822 37.9762C56.796 37.7194 56.9934 37.4055 57.0748 37.0333C57.1118 36.8653 57.121 36.7229 57.1027 36.6025C57.0851 36.4825 57.0445 36.3867 56.9805 36.3144C56.9178 36.2421 56.8459 36.1964 56.7669 36.179C56.6333 36.15 56.5043 36.1896 56.3811 36.2968C56.2569 36.4078 56.113 36.6167 55.9469 36.9236L55.5507 37.6539C55.4917 37.7637 55.3926 37.9109 55.2568 38.0916C55.1211 38.2737 54.9909 38.4067 54.8667 38.4932C54.7436 38.5783 54.5959 38.64 54.424 38.6763C54.251 38.7138 54.0791 38.7126 53.9061 38.6739C53.6598 38.6204 53.4473 38.5012 53.2696 38.3181C53.093 38.1349 52.9698 37.8921 52.9012 37.5874C52.8328 37.2841 52.835 36.9644 52.9084 36.6307C52.9967 36.2269 53.1813 35.8849 53.4612 35.6061L53.2569 35.424L53.3614 34.9455Z" fill="#231F20"/>
<path d="M32.8008 4.66237L38.6246 5.48145L36.4165 0.00388718L32.8008 4.66237Z" fill="#231F20"/>
<path d="M40.0664 5.89091L44.8042 2.39365L45.45 8.26562L40.0664 5.89091Z" fill="#231F20"/>
<path d="M46.7227 9.05222L52.2234 6.96677L51.271 12.7969L46.7227 9.05222Z" fill="#231F20"/>
<path d="M52.293 13.9028L58.1493 13.3766L55.6742 18.7363L52.293 13.9028Z" fill="#231F20"/>
<path d="M56.3594 20.0714L62.1389 21.1555L58.3143 25.6436L56.3594 20.0714Z" fill="#231F20"/>
<path d="M58.9935 33.0098L63.8833 29.7272L58.6113 27.1131L58.9935 33.0098Z" fill="#231F20"/>
<path d="M57.6895 40.2949L63.2764 38.4474L58.8917 34.5127L57.6895 40.2949Z" fill="#231F20"/>
<path d="M57.1867 41.7089L60.3436 46.6917L54.4688 46.9473L57.1867 41.7089Z" fill="#231F20"/>
<path d="M53.6019 48.1714L55.3093 53.8242L49.582 52.4833L53.6019 48.1714Z" fill="#231F20"/>
<path d="M48.4192 53.4328L48.554 59.3389L43.3945 56.5018L48.4192 53.4328Z" fill="#231F20"/>
<path d="M42.0241 57.1007L40.5604 62.8223L36.3594 58.6878L42.0241 57.1007Z" fill="#231F20"/>
<path d="M31.8616 64L34.8828 58.9331L29.002 58.8363L31.8616 64Z" fill="#231F20"/>
<path d="M27.5139 58.6824L23.3116 62.8135L21.8516 57.0907L27.5139 58.6824Z" fill="#231F20"/>
<path d="M20.4805 56.4908L15.3223 59.3242L15.4582 53.417L20.4805 56.4908Z" fill="#231F20"/>
<path d="M14.2966 52.4672L8.57031 53.8057L10.2802 48.1516L14.2966 52.4672Z" fill="#231F20"/>
<path d="M9.41291 46.9219L3.53906 46.6629L6.70078 41.6799L9.41291 46.9219Z" fill="#231F20"/>
<path d="M0.615234 38.421L6.19978 40.2705L5.00212 34.4871L0.615234 38.421Z" fill="#231F20"/>
<path d="M0.015625 29.6999L4.90335 32.9824L5.29114 27.0882L0.015625 29.6999Z" fill="#231F20"/>
<path d="M5.58904 25.6182L1.76758 21.1289L7.54851 20.0483L5.58904 25.6182Z" fill="#231F20"/>
<path d="M8.23925 18.71L5.76758 13.3502L11.6251 13.88L8.23925 18.71Z" fill="#231F20"/>
<path d="M12.6436 12.7793L11.6934 6.95019L17.1956 9.03805L12.6436 12.7793Z" fill="#231F20"/>
<path d="M18.4707 8.25293L19.1199 2.38195L23.8579 5.88282L18.4707 8.25293Z" fill="#231F20"/>
<path d="M27.5091 -0.000519753L25.2988 5.47363L31.1236 4.66036L27.5091 -0.000519753Z" fill="#231F20"/>
<path d="M31.9504 13.9922C31.9213 13.9922 31.8922 13.9934 31.8633 13.9946V15.8115C31.8922 15.8115 31.9213 15.8081 31.9504 15.8081C33.2896 15.8081 34.379 16.9026 34.379 18.2469C34.379 19.5926 33.2896 20.6871 31.9504 20.6871C31.9213 20.6871 31.8922 20.6835 31.8633 20.6825V22.5005C31.8922 22.5005 31.9213 22.5029 31.9504 22.5029C34.2861 22.5029 36.1854 20.5937 36.1854 18.2469C36.1854 15.9014 34.2861 13.9922 31.9504 13.9922Z" fill="white"/>
<path d="M49.1221 22.972V22.9638L31.8633 22.9638V24.0409H39.5233C36.2155 31.0673 35.0924 36.2766 34.975 40.0389H31.8633V43.1454H35.1213C35.6439 46.9882 37.2885 48.4795 37.2885 48.4795H39.8509C34.3188 38.3292 41.994 25.5697 42.958 24.0409L49.0328 24.0409L49.8481 25.7914H50.516L49.1221 22.972Z" fill="white"/>
<path d="M31.8627 20.6798C30.5641 20.6331 29.521 19.5609 29.521 18.2444C29.521 16.9291 30.5641 15.8557 31.8627 15.809V13.992C29.5675 14.0386 27.7148 15.928 27.7148 18.2444C27.7148 20.5608 29.5675 22.4502 31.8627 22.498V20.6798Z" fill="#231F20"/>
<path d="M31.8613 40.0387H28.7554C28.6379 36.2776 27.516 31.0683 24.2068 24.0419L31.8613 24.0419V22.9636L14.7767 22.9636V22.9718L13.3828 25.7924H14.0517L14.8672 24.0419H20.7735C21.7363 25.5695 29.4127 38.329 23.8794 48.4805H26.4428C26.4428 48.4805 28.0875 46.9889 28.6102 43.1463H31.8613V40.0387Z" fill="#231F20"/>
</g>
</g>
<defs>
<clipPath id="clip0">
<rect width="64" height="64" fill="white"/>
</clipPath>
</defs>
</svg>
