<svg id="svg" version="1.1" xmlns="http://www.w3.org/2000/svg" xmlns:xlink="http://www.w3.org/1999/xlink" width="400" height="400" viewBox="0, 0, 400,400"><g id="svgg"><path id="path0" d="M255.000 138.400 C 254.864 138.620,254.324 138.800,253.800 138.800 C 253.276 138.800,252.736 138.980,252.600 139.200 C 252.464 139.420,252.043 139.600,251.665 139.600 C 251.286 139.600,250.717 139.960,250.400 140.400 C 250.083 140.840,249.590 141.200,249.304 141.200 C 248.734 141.200,243.600 146.176,243.600 146.729 C 243.600 147.212,240.161 150.800,239.699 150.800 C 239.490 150.800,238.754 151.340,238.063 152.000 C 237.372 152.660,236.536 153.200,236.204 153.200 C 235.872 153.200,235.600 153.380,235.600 153.600 C 235.600 153.820,235.240 154.000,234.800 154.000 C 234.360 154.000,234.000 154.180,234.000 154.400 C 234.000 154.620,233.640 154.800,233.200 154.800 C 232.760 154.800,232.400 154.980,232.400 155.200 C 232.400 155.420,231.860 155.600,231.200 155.600 C 230.540 155.600,230.000 155.780,230.000 156.000 C 230.000 156.241,228.341 156.400,225.824 156.400 C 223.471 156.400,221.539 156.575,221.400 156.800 C 221.264 157.020,220.881 157.200,220.548 157.200 C 219.769 157.200,218.800 158.169,218.800 158.948 C 218.800 159.281,218.620 159.664,218.400 159.800 C 218.179 159.936,218.000 161.730,218.000 163.800 C 218.000 165.870,218.179 167.664,218.400 167.800 C 218.620 167.936,218.800 169.196,218.800 170.600 C 218.800 172.004,218.620 173.264,218.400 173.400 C 218.180 173.536,218.000 175.167,218.000 177.024 C 218.000 179.008,218.165 180.400,218.400 180.400 C 218.620 180.400,218.800 180.683,218.800 181.029 C 218.800 181.837,219.763 182.800,220.571 182.800 C 220.917 182.800,221.200 182.980,221.200 183.200 C 221.200 183.438,222.725 183.600,224.976 183.600 C 227.063 183.600,228.863 183.421,229.000 183.200 C 229.450 182.471,231.222 182.785,232.205 183.768 L 233.173 184.737 233.193 218.068 C 233.205 239.572,233.352 251.447,233.606 251.533 C 233.823 251.607,234.000 252.012,234.000 252.433 C 234.000 252.855,234.180 253.200,234.400 253.200 C 234.620 253.200,234.800 253.560,234.800 254.000 C 234.800 254.440,234.980 254.800,235.200 254.800 C 235.420 254.800,235.600 255.091,235.600 255.446 C 235.600 256.193,238.303 258.800,239.078 258.800 C 239.365 258.800,239.600 258.980,239.600 259.200 C 239.600 259.420,239.960 259.600,240.400 259.600 C 240.840 259.600,241.200 259.780,241.200 260.000 C 241.200 260.220,241.639 260.400,242.176 260.400 C 242.713 260.400,243.264 260.580,243.400 260.800 C 243.551 261.045,246.689 261.200,251.477 261.200 L 259.307 261.200 260.253 260.100 L 261.199 259.000 261.200 224.324 C 261.200 201.637,261.062 189.562,260.800 189.400 C 260.580 189.264,260.400 188.263,260.400 187.176 C 260.400 186.089,260.580 185.200,260.800 185.200 C 261.020 185.200,261.200 184.917,261.200 184.571 C 261.200 183.019,262.112 182.800,268.571 182.800 L 274.800 182.800 274.800 170.571 C 274.800 155.724,275.614 157.200,267.429 157.200 L 261.200 157.200 261.200 148.800 C 261.200 143.467,261.054 140.400,260.800 140.400 C 260.580 140.400,260.400 140.105,260.400 139.744 C 260.400 138.324,255.761 137.169,255.000 138.400 M323.500 155.517 C 321.795 155.581,320.400 155.806,320.400 156.017 C 320.400 156.228,319.860 156.400,319.200 156.400 C 318.540 156.400,318.000 156.580,318.000 156.800 C 318.000 157.020,317.640 157.200,317.200 157.200 C 316.760 157.200,316.400 157.380,316.400 157.600 C 316.400 157.820,316.040 158.000,315.600 158.000 C 315.160 158.000,314.800 158.180,314.800 158.400 C 314.800 158.620,314.480 158.800,314.088 158.800 C 313.697 158.800,313.117 159.160,312.800 159.600 C 312.483 160.040,311.975 160.400,311.672 160.400 C 311.369 160.400,310.617 160.940,310.000 161.600 C 308.495 163.211,308.400 163.150,308.400 160.571 C 308.400 159.173,308.187 158.130,307.829 157.771 C 307.059 157.001,281.645 156.915,280.880 157.680 C 280.512 158.048,280.400 169.924,280.400 208.698 L 280.400 259.236 281.382 260.218 C 282.446 261.282,298.776 261.810,299.400 260.800 C 299.536 260.580,299.997 260.400,300.424 260.400 C 300.851 260.400,301.200 260.220,301.200 260.000 C 301.200 259.780,301.520 259.600,301.912 259.600 C 302.303 259.600,302.883 259.240,303.200 258.800 C 303.517 258.360,304.013 258.000,304.301 258.000 C 304.589 258.000,304.942 257.685,305.085 257.300 C 305.228 256.915,305.672 256.309,306.072 255.953 C 306.473 255.597,306.800 255.012,306.800 254.653 C 306.800 254.294,306.980 254.000,307.200 254.000 C 307.420 254.000,307.600 253.460,307.600 252.800 C 307.600 252.140,307.780 251.600,308.000 251.600 C 308.263 251.600,308.400 240.533,308.400 219.200 C 308.400 197.867,308.537 186.800,308.800 186.800 C 309.020 186.800,309.200 186.528,309.200 186.195 C 309.200 184.906,310.795 182.800,311.771 182.800 C 312.117 182.800,312.400 182.620,312.400 182.400 C 312.400 182.180,312.940 182.000,313.600 182.000 C 314.260 182.000,314.800 181.820,314.800 181.600 C 314.800 181.380,315.160 181.200,315.600 181.200 C 316.040 181.200,316.400 181.380,316.400 181.600 C 316.400 181.820,316.858 182.000,317.418 182.000 C 318.541 182.000,320.400 183.610,320.400 184.582 C 320.400 184.922,320.580 185.200,320.800 185.200 C 321.064 185.200,321.200 197.733,321.200 222.000 C 321.200 246.267,321.336 258.800,321.600 258.800 C 321.820 258.800,322.000 259.083,322.000 259.429 C 322.000 260.237,322.963 261.200,323.771 261.200 C 324.117 261.200,324.400 261.380,324.400 261.600 C 324.400 261.841,326.059 262.000,328.576 262.000 C 330.929 262.000,332.861 261.825,333.000 261.600 C 333.136 261.380,334.857 261.200,336.824 261.200 C 338.941 261.200,340.400 261.037,340.400 260.800 C 340.400 260.580,340.940 260.400,341.600 260.400 C 342.260 260.400,342.800 260.220,342.800 260.000 C 342.800 259.780,343.075 259.600,343.411 259.600 C 344.204 259.600,347.600 256.204,347.600 255.411 C 347.600 255.075,347.780 254.800,348.000 254.800 C 348.220 254.800,348.400 254.440,348.400 254.000 C 348.400 253.560,348.580 253.200,348.800 253.200 C 349.022 253.200,349.200 252.141,349.200 250.824 C 349.200 249.517,349.380 248.336,349.600 248.200 C 349.861 248.039,350.000 237.063,350.000 216.576 C 350.000 195.925,350.137 185.200,350.400 185.200 C 350.620 185.200,350.800 184.917,350.800 184.571 C 350.800 183.763,351.763 182.800,352.571 182.800 C 352.917 182.800,353.200 182.620,353.200 182.400 C 353.200 182.167,354.533 182.000,356.400 182.000 C 358.267 182.000,359.600 182.167,359.600 182.400 C 359.600 182.620,359.960 182.800,360.400 182.800 C 360.933 182.800,361.200 183.067,361.200 183.600 C 361.200 184.040,361.380 184.400,361.600 184.400 C 361.820 184.400,362.000 184.839,362.000 185.376 C 362.000 185.913,362.180 186.464,362.400 186.600 C 362.662 186.762,362.800 199.480,362.800 223.452 C 362.800 254.643,362.885 260.142,363.371 260.629 C 364.067 261.325,381.376 261.486,381.800 260.800 C 381.936 260.580,382.397 260.400,382.824 260.400 C 383.251 260.400,383.600 260.220,383.600 260.000 C 383.600 259.780,383.874 259.600,384.209 259.600 C 384.543 259.600,385.803 258.614,387.009 257.409 C 388.214 256.203,389.200 254.943,389.200 254.609 C 389.200 254.274,389.380 254.000,389.600 254.000 C 389.820 254.000,390.000 253.471,390.000 252.824 C 390.000 252.177,390.180 251.536,390.400 251.400 C 390.662 251.238,390.800 238.270,390.800 213.800 C 390.800 189.330,390.662 176.362,390.400 176.200 C 390.180 176.064,390.000 175.153,390.000 174.176 C 390.000 173.199,389.820 172.400,389.600 172.400 C 389.380 172.400,389.200 171.860,389.200 171.200 C 389.200 170.540,389.020 170.000,388.800 170.000 C 388.580 170.000,388.400 169.640,388.400 169.200 C 388.400 168.760,388.220 168.400,388.000 168.400 C 387.780 168.400,387.600 168.080,387.600 167.688 C 387.600 167.297,387.240 166.717,386.800 166.400 C 386.360 166.083,386.000 165.588,386.000 165.301 C 386.000 164.622,382.578 161.200,381.899 161.200 C 381.612 161.200,381.117 160.840,380.800 160.400 C 380.483 159.960,379.943 159.600,379.600 159.600 C 379.257 159.600,378.717 159.240,378.400 158.800 C 378.083 158.360,377.503 158.000,377.112 158.000 C 376.720 158.000,376.400 157.820,376.400 157.600 C 376.400 157.380,375.860 157.200,375.200 157.200 C 374.540 157.200,374.000 157.020,374.000 156.800 C 374.000 156.580,373.460 156.400,372.800 156.400 C 372.140 156.400,371.600 156.220,371.600 156.000 C 371.600 155.751,369.333 155.600,365.600 155.600 C 361.867 155.600,359.600 155.751,359.600 156.000 C 359.600 156.220,359.060 156.400,358.400 156.400 C 357.740 156.400,357.200 156.580,357.200 156.800 C 357.200 157.020,356.840 157.200,356.400 157.200 C 355.960 157.200,355.600 157.380,355.600 157.600 C 355.600 157.820,355.240 158.000,354.800 158.000 C 354.360 158.000,354.000 158.180,354.000 158.400 C 354.000 158.620,353.712 158.800,353.360 158.800 C 353.009 158.800,352.217 159.340,351.600 160.000 C 350.983 160.660,350.267 161.200,350.008 161.200 C 349.749 161.200,348.846 161.920,348.000 162.800 C 346.030 164.851,345.992 164.845,343.200 162.000 C 341.904 160.680,340.604 159.600,340.310 159.600 C 340.017 159.600,339.517 159.240,339.200 158.800 C 338.883 158.360,338.303 158.000,337.912 158.000 C 337.520 158.000,337.200 157.820,337.200 157.600 C 337.200 157.380,336.851 157.200,336.424 157.200 C 335.997 157.200,335.536 157.020,335.400 156.800 C 335.264 156.580,334.749 156.400,334.256 156.400 C 333.763 156.400,333.189 156.238,332.980 156.039 C 332.529 155.611,327.844 155.353,323.500 155.517 M93.400 156.800 C 93.255 157.034,93.670 157.200,94.400 157.200 C 95.130 157.200,95.545 157.034,95.400 156.800 C 95.264 156.580,94.814 156.400,94.400 156.400 C 93.986 156.400,93.536 156.580,93.400 156.800 M27.000 157.600 C 26.860 157.826,27.188 158.000,27.753 158.000 C 28.303 158.000,28.864 157.820,29.000 157.600 C 29.140 157.374,28.812 157.200,28.247 157.200 C 27.697 157.200,27.136 157.380,27.000 157.600 M54.400 157.600 C 54.400 157.820,54.861 158.000,55.424 158.000 C 56.004 158.000,56.340 157.827,56.200 157.600 C 56.064 157.380,55.603 157.200,55.176 157.200 C 54.749 157.200,54.400 157.380,54.400 157.600 M129.400 157.600 C 129.264 157.820,129.523 158.000,129.976 158.000 C 130.429 158.000,130.800 157.820,130.800 157.600 C 130.800 157.380,130.541 157.200,130.224 157.200 C 129.907 157.200,129.536 157.380,129.400 157.600 M187.417 157.837 C 186.816 158.276,186.750 158.510,187.121 158.881 C 187.493 159.253,187.600 159.214,187.600 158.709 C 187.600 158.351,187.915 157.996,188.300 157.920 C 188.685 157.844,188.818 157.666,188.596 157.526 C 188.373 157.386,187.843 157.526,187.417 157.837 M59.200 158.400 C 58.715 158.714,58.772 158.789,59.500 158.794 C 59.995 158.797,60.400 158.620,60.400 158.400 C 60.400 157.899,59.976 157.899,59.200 158.400 M88.400 159.400 C 88.400 159.730,88.580 160.000,88.800 160.000 C 89.020 160.000,89.200 159.730,89.200 159.400 C 89.200 159.070,89.020 158.800,88.800 158.800 C 88.580 158.800,88.400 159.070,88.400 159.400 M148.400 180.776 C 148.400 194.996,148.541 202.840,148.800 203.000 C 149.065 203.164,149.200 195.737,149.200 181.024 C 149.200 166.475,149.062 158.800,148.800 158.800 C 148.538 158.800,148.400 166.392,148.400 180.776 M16.885 162.682 C 16.161 163.463,15.654 164.188,15.758 164.291 C 15.953 164.486,18.800 161.793,18.800 161.413 C 18.800 160.902,18.107 161.361,16.885 162.682 M88.400 168.176 C 88.400 169.373,88.580 170.464,88.800 170.600 C 89.050 170.754,89.200 169.937,89.200 168.424 C 89.200 167.075,89.023 166.000,88.800 166.000 C 88.580 166.000,88.400 166.979,88.400 168.176 M13.200 168.200 C 13.200 168.530,13.380 168.800,13.600 168.800 C 13.820 168.800,14.000 168.530,14.000 168.200 C 14.000 167.870,13.820 167.600,13.600 167.600 C 13.380 167.600,13.200 167.870,13.200 168.200 M12.400 170.200 C 12.400 170.750,12.580 171.200,12.800 171.200 C 13.020 171.200,13.200 170.750,13.200 170.200 C 13.200 169.650,13.020 169.200,12.800 169.200 C 12.580 169.200,12.400 169.650,12.400 170.200 M142.000 169.800 C 142.000 170.130,142.180 170.400,142.400 170.400 C 142.620 170.400,142.800 170.130,142.800 169.800 C 142.800 169.470,142.620 169.200,142.400 169.200 C 142.180 169.200,142.000 169.470,142.000 169.800 M11.600 173.976 C 11.600 174.843,11.780 175.664,12.000 175.800 C 12.244 175.951,12.400 175.337,12.400 174.224 C 12.400 173.221,12.220 172.400,12.000 172.400 C 11.780 172.400,11.600 173.109,11.600 173.976 M74.000 173.800 C 74.000 174.130,74.180 174.400,74.400 174.400 C 74.620 174.400,74.800 174.130,74.800 173.800 C 74.800 173.470,74.620 173.200,74.400 173.200 C 74.180 173.200,74.000 173.470,74.000 173.800 M95.600 181.600 C 95.600 181.820,95.870 182.000,96.200 182.000 C 96.530 182.000,96.800 181.820,96.800 181.600 C 96.800 181.380,96.530 181.200,96.200 181.200 C 95.870 181.200,95.600 181.380,95.600 181.600 M98.000 182.400 C 98.000 182.620,98.360 182.800,98.800 182.800 C 99.240 182.800,99.600 182.620,99.600 182.400 C 99.600 182.180,99.240 182.000,98.800 182.000 C 98.360 182.000,98.000 182.180,98.000 182.400 M74.920 196.800 C 74.921 210.971,74.932 211.167,75.275 203.474 C 75.480 198.879,75.479 192.744,75.274 188.874 C 74.953 182.827,74.920 183.571,74.920 196.800 M36.900 183.398 C 36.265 184.120,36.169 209.010,36.800 209.400 C 37.064 209.563,37.200 205.204,37.200 196.624 C 37.200 188.208,37.342 183.600,37.600 183.600 C 37.820 183.600,38.000 183.420,38.000 183.200 C 38.000 182.637,37.489 182.729,36.900 183.398 M44.600 183.200 C 44.736 183.420,45.377 183.600,46.024 183.600 C 46.671 183.600,47.200 183.420,47.200 183.200 C 47.200 182.980,46.559 182.800,45.776 182.800 C 44.929 182.800,44.453 182.962,44.600 183.200 M47.600 183.829 C 47.600 184.253,48.836 185.297,49.067 185.067 C 49.192 184.941,49.017 184.560,48.676 184.219 C 48.041 183.584,47.600 183.424,47.600 183.829 M49.200 187.200 C 49.200 187.860,49.380 188.400,49.600 188.400 C 49.820 188.400,50.000 187.860,50.000 187.200 C 50.000 186.540,49.820 186.000,49.600 186.000 C 49.380 186.000,49.200 186.540,49.200 187.200 M115.663 189.500 C 114.927 190.215,114.531 190.800,114.781 190.800 C 115.352 190.800,117.305 188.879,117.130 188.489 C 117.058 188.330,116.398 188.785,115.663 189.500 M98.000 191.200 C 98.000 191.420,98.270 191.600,98.600 191.600 C 98.930 191.600,99.200 191.420,99.200 191.200 C 99.200 190.980,98.930 190.800,98.600 190.800 C 98.270 190.800,98.000 190.980,98.000 191.200 M88.093 195.600 C 87.818 196.040,87.698 196.400,87.825 196.400 C 88.125 196.400,89.200 195.327,89.200 195.029 C 89.200 194.520,88.562 194.849,88.093 195.600 M49.467 195.467 C 49.023 195.911,49.152 209.200,49.600 209.200 C 49.851 209.200,50.000 206.600,50.000 202.200 C 50.000 198.350,49.940 195.200,49.867 195.200 C 49.793 195.200,49.613 195.320,49.467 195.467 M174.000 196.576 C 174.000 197.359,174.180 198.000,174.400 198.000 C 174.620 198.000,174.800 197.471,174.800 196.824 C 174.800 196.177,174.620 195.536,174.400 195.400 C 174.162 195.253,174.000 195.729,174.000 196.576 M175.600 200.629 C 175.600 200.927,176.675 202.000,176.975 202.000 C 177.102 202.000,176.982 201.640,176.707 201.200 C 176.238 200.449,175.600 200.120,175.600 200.629 M184.893 201.200 C 184.618 201.640,184.498 202.000,184.625 202.000 C 184.925 202.000,186.000 200.927,186.000 200.629 C 186.000 200.120,185.362 200.449,184.893 201.200 M178.000 202.400 C 178.000 202.620,178.371 202.800,178.824 202.800 C 179.277 202.800,179.536 202.620,179.400 202.400 C 179.264 202.180,178.893 202.000,178.576 202.000 C 178.259 202.000,178.000 202.180,178.000 202.400 M181.769 202.450 C 181.650 202.643,182.003 202.800,182.553 202.800 C 183.103 202.800,183.650 202.643,183.769 202.450 C 183.888 202.258,183.535 202.100,182.985 202.100 C 182.435 202.100,181.888 202.258,181.769 202.450 M79.867 207.867 C 79.457 208.277,79.551 209.922,80.000 210.200 C 80.238 210.347,80.400 209.871,80.400 209.024 C 80.400 207.562,80.328 207.405,79.867 207.867 M149.200 210.176 C 149.200 210.713,149.380 211.264,149.600 211.400 C 149.833 211.544,150.000 211.137,150.000 210.424 C 150.000 209.751,149.820 209.200,149.600 209.200 C 149.380 209.200,149.200 209.639,149.200 210.176 M37.200 211.059 C 37.200 211.593,38.483 212.442,39.101 212.317 C 39.628 212.210,39.480 212.013,38.500 211.518 C 37.785 211.157,37.200 210.950,37.200 211.059 M40.600 212.000 C 40.444 212.252,41.396 212.400,43.176 212.400 C 44.792 212.400,46.000 212.229,46.000 212.000 C 46.000 211.775,44.875 211.600,43.424 211.600 C 42.007 211.600,40.736 211.780,40.600 212.000 M150.000 212.951 C 150.000 213.254,150.259 213.717,150.576 213.980 C 150.893 214.243,151.054 214.715,150.933 215.029 C 150.813 215.343,150.914 215.600,151.157 215.600 C 151.709 215.600,151.742 214.535,151.200 214.200 C 150.980 214.064,150.800 213.603,150.800 213.176 C 150.800 212.749,150.620 212.400,150.400 212.400 C 150.180 212.400,150.000 212.648,150.000 212.951 M79.067 213.467 C 78.622 213.911,78.751 237.923,79.200 238.200 C 79.463 238.363,79.600 234.137,79.600 225.824 C 79.600 218.881,79.540 213.200,79.467 213.200 C 79.393 213.200,79.213 213.320,79.067 213.467 M108.400 214.388 C 108.400 214.857,111.148 214.808,111.440 214.335 C 111.554 214.151,110.917 214.000,110.024 214.000 C 109.131 214.000,108.400 214.175,108.400 214.388 M114.800 214.400 C 114.800 214.620,115.070 214.800,115.400 214.800 C 115.730 214.800,116.000 214.620,116.000 214.400 C 116.000 214.180,115.730 214.000,115.400 214.000 C 115.070 214.000,114.800 214.180,114.800 214.400 M151.900 216.247 C 151.745 216.492,151.975 217.015,152.409 217.409 C 152.861 217.817,153.200 217.926,153.200 217.662 C 153.200 217.408,153.033 217.200,152.829 217.200 C 152.625 217.200,152.396 216.885,152.320 216.500 C 152.231 216.052,152.080 215.961,151.900 216.247 M104.400 218.824 C 104.400 219.277,104.580 219.536,104.800 219.400 C 105.020 219.264,105.200 218.893,105.200 218.576 C 105.200 218.259,105.020 218.000,104.800 218.000 C 104.580 218.000,104.400 218.371,104.400 218.824 M74.000 220.224 C 74.000 220.804,74.173 221.140,74.400 221.000 C 74.620 220.864,74.800 220.403,74.800 219.976 C 74.800 219.549,74.620 219.200,74.400 219.200 C 74.180 219.200,74.000 219.661,74.000 220.224 M158.600 223.600 C 158.998 224.040,159.566 224.400,159.862 224.400 C 160.158 224.400,160.400 224.580,160.400 224.800 C 160.400 225.020,160.760 225.200,161.200 225.200 C 161.640 225.200,162.000 225.380,162.000 225.600 C 162.000 225.820,162.360 226.000,162.800 226.000 C 163.240 226.000,163.600 226.180,163.600 226.400 C 163.600 226.620,164.050 226.800,164.600 226.800 C 165.150 226.800,165.600 226.620,165.600 226.400 C 165.600 226.180,165.150 226.000,164.600 226.000 C 164.050 226.000,163.600 225.820,163.600 225.600 C 163.600 225.380,163.366 225.200,163.080 225.200 C 162.344 225.200,160.407 224.259,160.403 223.900 C 160.401 223.735,160.040 223.600,159.600 223.600 C 159.160 223.600,158.800 223.420,158.800 223.200 C 158.800 222.980,158.592 222.800,158.338 222.800 C 158.076 222.800,158.189 223.146,158.600 223.600 M166.200 227.200 C 166.336 227.420,167.157 227.600,168.024 227.600 C 168.891 227.600,169.600 227.420,169.600 227.200 C 169.600 226.980,168.779 226.800,167.776 226.800 C 166.663 226.800,166.049 226.956,166.200 227.200 M171.000 228.000 C 171.150 228.242,174.004 228.400,178.224 228.400 C 182.608 228.400,185.200 228.251,185.200 228.000 C 185.200 227.748,182.525 227.600,177.976 227.600 C 173.263 227.600,170.839 227.739,171.000 228.000 M68.860 230.642 C 68.562 230.978,68.399 231.332,68.495 231.429 C 68.592 231.526,68.998 231.244,69.398 230.802 C 69.797 230.361,69.961 230.007,69.762 230.015 C 69.563 230.024,69.157 230.305,68.860 230.642 M104.400 230.976 C 104.400 231.539,104.580 232.000,104.800 232.000 C 105.020 232.000,105.200 231.651,105.200 231.224 C 105.200 230.797,105.020 230.336,104.800 230.200 C 104.573 230.060,104.400 230.396,104.400 230.976 M117.200 234.200 C 117.200 234.750,117.380 235.200,117.600 235.200 C 117.820 235.200,118.000 234.750,118.000 234.200 C 118.000 233.650,117.820 233.200,117.600 233.200 C 117.380 233.200,117.200 233.650,117.200 234.200 M107.600 235.200 C 107.600 235.420,107.971 235.600,108.424 235.600 C 108.877 235.600,109.136 235.420,109.000 235.200 C 108.864 234.980,108.493 234.800,108.176 234.800 C 107.859 234.800,107.600 234.980,107.600 235.200 M110.400 236.000 C 110.400 236.233,111.733 236.400,113.600 236.400 C 115.467 236.400,116.800 236.233,116.800 236.000 C 116.800 235.767,115.467 235.600,113.600 235.600 C 111.733 235.600,110.400 235.767,110.400 236.000 M167.800 236.000 C 167.638 236.262,170.463 236.400,175.976 236.400 C 181.325 236.400,184.400 236.254,184.400 236.000 C 184.400 235.746,181.408 235.600,176.224 235.600 C 171.204 235.600,167.952 235.754,167.800 236.000 M165.200 236.800 C 165.200 237.020,164.966 237.200,164.679 237.200 C 164.082 237.200,159.476 241.610,159.768 241.902 C 159.874 242.007,160.833 241.218,161.898 240.147 C 163.977 238.058,165.228 237.200,166.195 237.200 C 166.528 237.200,166.800 237.020,166.800 236.800 C 166.800 236.580,166.440 236.400,166.000 236.400 C 165.560 236.400,165.200 236.580,165.200 236.800 M41.800 237.600 C 41.936 237.821,43.730 238.000,45.800 238.000 C 47.870 238.000,49.664 237.821,49.800 237.600 C 49.959 237.343,48.530 237.200,45.800 237.200 C 43.070 237.200,41.641 237.343,41.800 237.600 M211.600 239.624 C 211.600 240.517,211.742 241.159,211.916 241.052 C 212.397 240.755,212.484 238.000,212.013 238.000 C 211.786 238.000,211.600 238.731,211.600 239.624 M36.400 244.624 C 36.400 248.671,36.540 250.761,36.800 250.600 C 37.038 250.453,37.200 247.929,37.200 244.376 C 37.200 240.659,37.049 238.400,36.800 238.400 C 36.550 238.400,36.400 240.741,36.400 244.624 M79.600 243.376 C 79.600 244.133,79.780 244.864,80.000 245.000 C 80.242 245.149,80.400 244.604,80.400 243.624 C 80.400 242.731,80.220 242.000,80.000 242.000 C 79.780 242.000,79.600 242.619,79.600 243.376 M159.012 243.317 C 158.841 243.712,158.813 244.147,158.951 244.284 C 159.357 244.690,159.684 244.120,159.497 243.331 C 159.332 242.633,159.310 242.632,159.012 243.317 M210.800 244.200 C 210.800 244.796,210.972 245.141,211.200 245.000 C 211.420 244.864,211.600 244.504,211.600 244.200 C 211.600 243.896,211.420 243.536,211.200 243.400 C 210.972 243.259,210.800 243.604,210.800 244.200 M142.000 244.424 C 142.000 244.877,142.180 245.136,142.400 245.000 C 142.620 244.864,142.800 244.493,142.800 244.176 C 142.800 243.859,142.620 243.600,142.400 243.600 C 142.180 243.600,142.000 243.971,142.000 244.424 M80.488 246.549 C 80.533 247.095,80.712 247.455,80.885 247.348 C 81.329 247.073,81.277 246.095,80.803 245.802 C 80.574 245.660,80.440 245.977,80.488 246.549 M158.000 253.200 C 158.000 257.200,158.150 259.600,158.400 259.600 C 158.650 259.600,158.800 257.200,158.800 253.200 C 158.800 249.200,158.650 246.800,158.400 246.800 C 158.150 246.800,158.000 249.200,158.000 253.200 M208.060 250.642 C 207.331 251.466,207.800 251.857,208.581 251.076 C 208.921 250.736,209.200 250.354,209.200 250.229 C 209.200 249.809,208.606 250.024,208.060 250.642 M82.800 251.508 C 82.800 251.979,88.050 257.283,88.284 257.049 C 88.397 256.936,87.389 255.764,86.045 254.444 C 84.700 253.124,83.600 251.854,83.600 251.622 C 83.600 251.390,83.420 251.200,83.200 251.200 C 82.980 251.200,82.800 251.339,82.800 251.508 M11.067 251.867 C 10.640 252.293,10.759 257.927,11.200 258.200 C 11.455 258.357,11.600 257.204,11.600 255.024 C 11.600 251.594,11.562 251.371,11.067 251.867 M205.262 254.258 C 204.306 255.248,203.599 256.132,203.690 256.223 C 203.868 256.401,206.241 254.258,207.149 253.100 C 208.235 251.716,206.964 252.495,205.262 254.258 M137.262 255.058 C 135.248 257.143,135.237 257.884,137.249 255.901 C 139.028 254.149,139.779 253.193,139.349 253.229 C 139.157 253.245,138.218 254.068,137.262 255.058 M32.860 257.842 C 32.562 258.178,32.399 258.532,32.495 258.629 C 32.592 258.726,32.998 258.444,33.398 258.002 C 33.797 257.561,33.961 257.207,33.762 257.215 C 33.563 257.224,33.157 257.505,32.860 257.842 M199.000 258.400 C 198.864 258.620,198.403 258.800,197.976 258.800 C 197.549 258.800,197.200 258.980,197.200 259.200 C 197.200 259.420,196.660 259.600,196.000 259.600 C 195.340 259.600,194.800 259.780,194.800 260.000 C 194.800 260.220,195.239 260.400,195.776 260.400 C 196.313 260.400,196.864 260.220,197.000 260.000 C 197.136 259.780,197.597 259.600,198.024 259.600 C 198.451 259.600,198.800 259.420,198.800 259.200 C 198.800 258.980,199.160 258.800,199.600 258.800 C 200.040 258.800,200.400 258.620,200.400 258.400 C 200.400 258.180,200.141 258.000,199.824 258.000 C 199.507 258.000,199.136 258.180,199.000 258.400 M91.600 258.981 C 91.600 259.487,94.464 260.456,95.097 260.164 C 95.653 259.907,95.528 259.809,94.500 259.694 C 93.785 259.615,93.200 259.381,93.200 259.175 C 93.200 258.969,92.840 258.800,92.400 258.800 C 91.960 258.800,91.600 258.882,91.600 258.981 M131.200 259.200 C 131.200 259.420,131.470 259.600,131.800 259.600 C 132.130 259.600,132.400 259.420,132.400 259.200 C 132.400 258.980,132.130 258.800,131.800 258.800 C 131.470 258.800,131.200 258.980,131.200 259.200 M11.613 259.438 C 11.592 260.149,13.081 261.316,13.384 260.826 C 13.529 260.592,13.431 260.400,13.168 260.400 C 12.904 260.400,12.449 260.085,12.157 259.700 C 11.865 259.315,11.620 259.197,11.613 259.438 M29.200 260.000 C 29.200 260.220,28.480 260.400,27.600 260.400 C 26.720 260.400,26.000 260.580,26.000 260.800 C 26.000 261.498,28.560 261.214,29.600 260.400 C 30.410 259.766,30.467 259.616,29.900 259.609 C 29.515 259.604,29.200 259.780,29.200 260.000 M128.800 260.000 C 128.800 260.220,129.250 260.400,129.800 260.400 C 130.350 260.400,130.800 260.220,130.800 260.000 C 130.800 259.780,130.350 259.600,129.800 259.600 C 129.250 259.600,128.800 259.780,128.800 260.000 M96.800 260.800 C 96.800 261.020,97.531 261.200,98.424 261.200 C 99.404 261.200,99.949 261.042,99.800 260.800 C 99.664 260.580,98.933 260.400,98.176 260.400 C 97.419 260.400,96.800 260.580,96.800 260.800 M124.000 260.800 C 124.000 261.020,124.889 261.200,125.976 261.200 C 127.063 261.200,128.064 261.020,128.200 260.800 C 128.353 260.552,127.604 260.400,126.224 260.400 C 125.001 260.400,124.000 260.580,124.000 260.800 M158.800 260.800 C 158.800 261.020,159.171 261.200,159.624 261.200 C 160.077 261.200,160.336 261.020,160.200 260.800 C 160.064 260.580,159.693 260.400,159.376 260.400 C 159.059 260.400,158.800 260.580,158.800 260.800 M189.200 260.800 C 189.200 261.020,190.179 261.200,191.376 261.200 C 192.573 261.200,193.664 261.020,193.800 260.800 C 193.954 260.550,193.137 260.400,191.624 260.400 C 190.275 260.400,189.200 260.577,189.200 260.800 M14.223 261.563 C 14.094 261.771,15.785 261.931,18.191 261.939 C 20.497 261.945,22.487 261.782,22.615 261.576 C 22.754 261.351,21.163 261.200,18.647 261.200 C 16.337 261.200,14.346 261.363,14.223 261.563 M109.300 261.496 C 110.565 261.575,112.635 261.575,113.900 261.496 C 115.165 261.416,114.130 261.351,111.600 261.351 C 109.070 261.351,108.035 261.416,109.300 261.496 " stroke="none" fill="#06bcec" fill-rule="evenodd"></path><path id="path1" d="M34.000 158.799 C 21.034 159.346,16.119 162.926,13.788 173.517 C 13.342 175.546,12.863 242.515,13.182 258.291 C 13.217 260.008,18.599 261.641,19.908 260.332 C 20.166 260.074,21.820 259.812,23.583 259.748 C 25.347 259.685,27.107 259.467,27.495 259.264 C 27.883 259.061,28.756 258.775,29.436 258.630 C 31.282 258.234,34.800 254.178,34.800 252.446 C 34.800 252.229,34.999 251.545,35.242 250.926 C 35.508 250.249,35.658 247.389,35.618 243.753 C 35.541 236.774,35.703 236.367,38.529 236.447 C 40.110 236.492,40.135 236.511,39.000 236.800 C 37.874 237.087,37.905 237.108,39.500 237.153 C 40.465 237.180,41.200 237.016,41.200 236.774 C 41.200 236.279,48.820 236.461,50.363 236.994 C 51.009 237.217,51.240 237.188,51.065 236.905 C 50.713 236.336,51.369 236.131,54.630 235.786 C 64.830 234.708,71.123 229.035,72.969 219.256 C 73.868 214.492,73.888 178.827,72.994 174.607 C 70.149 161.172,61.441 157.642,34.000 158.799 M90.881 159.483 C 89.939 160.425,89.926 160.531,90.181 165.521 C 90.864 178.910,92.932 180.769,107.600 181.174 C 117.788 181.455,118.800 181.945,118.800 186.600 C 118.800 191.126,117.267 191.999,109.320 192.002 C 93.173 192.006,85.138 196.763,81.962 208.200 C 80.784 212.440,80.628 239.582,81.756 243.776 C 83.391 249.848,87.010 254.757,91.467 256.946 C 92.750 257.576,94.113 258.251,94.495 258.446 C 94.877 258.641,95.450 258.800,95.769 258.800 C 96.087 258.800,96.846 258.989,97.455 259.221 C 98.988 259.804,124.803 259.727,127.200 259.132 C 132.573 257.799,136.783 254.768,138.770 250.800 C 141.082 246.187,141.000 247.789,141.000 207.000 L 141.000 169.400 139.880 167.000 C 138.416 163.865,136.078 161.524,133.047 160.161 C 130.243 158.899,130.450 158.911,106.020 158.666 L 91.840 158.524 90.881 159.483 M150.681 170.134 C 150.048 199.232,150.761 210.941,153.442 215.492 C 155.958 219.760,163.106 225.200,166.200 225.200 C 166.559 225.200,167.230 225.402,167.691 225.649 C 168.237 225.941,171.071 226.072,175.837 226.026 C 185.509 225.933,187.835 226.860,188.301 230.999 C 188.871 236.057,187.258 236.925,177.475 236.822 C 173.060 236.775,169.755 236.904,169.475 237.132 C 169.214 237.346,168.243 237.724,167.317 237.972 C 161.846 239.434,160.240 242.606,160.075 252.273 L 159.951 259.573 175.675 259.686 C 187.603 259.773,191.641 259.680,192.400 259.302 C 192.950 259.029,193.707 258.804,194.081 258.802 C 194.946 258.799,196.264 258.275,199.936 256.473 C 204.797 254.089,207.951 249.964,209.675 243.742 C 210.666 240.163,211.378 160.578,210.429 159.435 C 209.903 158.801,189.684 158.673,188.900 159.299 C 188.512 159.608,188.400 164.036,188.400 178.989 C 188.400 191.870,188.254 198.732,187.962 199.640 C 187.438 201.269,184.888 203.719,184.052 203.398 C 183.728 203.274,183.343 203.369,183.195 203.609 C 182.819 204.217,178.770 204.199,178.392 203.588 C 178.226 203.318,177.919 203.203,177.712 203.331 C 177.504 203.460,176.657 203.105,175.830 202.543 C 172.983 200.608,173.023 200.924,172.800 178.800 L 172.600 159.000 161.764 158.894 L 150.928 158.787 150.681 170.134 M47.992 182.100 C 51.195 183.736,51.381 184.508,51.519 196.740 C 51.679 210.936,51.276 212.089,45.682 213.426 C 41.317 214.469,38.532 214.212,36.938 212.618 L 35.556 211.236 35.620 197.118 C 35.698 179.842,35.172 181.200,41.785 181.200 C 45.607 181.200,46.478 181.326,47.992 182.100 M116.674 213.180 C 118.635 214.375,118.698 214.725,118.901 225.483 C 119.107 236.411,118.879 237.660,116.802 237.001 C 116.398 236.872,115.952 236.955,115.810 237.184 C 115.469 237.735,113.720 237.718,113.375 237.160 C 113.200 236.876,112.376 236.811,111.051 236.976 C 109.526 237.167,108.792 237.077,108.199 236.629 C 107.760 236.297,107.119 236.020,106.775 236.013 C 102.399 235.924,101.656 217.093,105.909 214.065 C 108.416 212.280,114.392 211.788,116.674 213.180 " stroke="none" fill="#04346c" fill-rule="evenodd"></path><path id="path2" d="M39.200 157.600 C 39.200 157.820,39.830 158.000,40.600 158.000 C 41.370 158.000,42.000 157.820,42.000 157.600 C 42.000 157.380,41.370 157.200,40.600 157.200 C 39.830 157.200,39.200 157.380,39.200 157.600 M50.000 157.600 C 50.000 157.820,50.360 158.000,50.800 158.000 C 51.240 158.000,51.600 157.820,51.600 157.600 C 51.600 157.380,51.240 157.200,50.800 157.200 C 50.360 157.200,50.000 157.380,50.000 157.600 M31.511 158.293 C 32.451 158.378,33.891 158.377,34.711 158.291 C 35.530 158.205,34.760 158.136,33.000 158.137 C 31.240 158.139,30.570 158.209,31.511 158.293 M101.312 158.295 C 102.364 158.377,103.984 158.376,104.912 158.292 C 105.840 158.208,104.980 158.141,103.000 158.142 C 101.020 158.143,100.260 158.212,101.312 158.295 M122.115 158.296 C 123.388 158.376,125.368 158.375,126.515 158.294 C 127.662 158.214,126.620 158.149,124.200 158.150 C 121.780 158.151,120.842 158.216,122.115 158.296 M156.124 158.299 C 159.162 158.367,164.022 158.367,166.924 158.299 C 169.826 158.231,167.340 158.175,161.400 158.175 C 155.460 158.175,153.086 158.231,156.124 158.299 M190.691 158.289 C 191.401 158.377,192.661 158.379,193.491 158.292 C 194.321 158.205,193.740 158.133,192.200 158.131 C 190.660 158.129,189.981 158.200,190.691 158.289 M205.891 158.289 C 206.601 158.377,207.861 158.379,208.691 158.292 C 209.521 158.205,208.940 158.133,207.400 158.131 C 205.860 158.129,205.181 158.200,205.891 158.289 M149.779 159.310 C 149.672 159.590,149.633 163.685,149.693 168.410 L 149.802 177.000 150.001 167.900 C 150.196 158.989,150.177 158.272,149.779 159.310 M211.628 163.100 C 211.672 167.308,212.281 167.977,212.357 163.900 C 212.397 161.731,212.265 160.400,212.011 160.400 C 211.768 160.400,211.611 161.502,211.628 163.100 M68.400 164.600 C 69.146 165.370,69.847 166.000,69.957 166.000 C 70.067 166.000,69.546 165.370,68.800 164.600 C 68.054 163.830,67.353 163.200,67.243 163.200 C 67.133 163.200,67.654 163.830,68.400 164.600 M140.926 167.569 C 140.967 168.101,141.270 168.610,141.600 168.699 C 141.996 168.806,142.046 168.749,141.746 168.530 C 141.497 168.349,141.193 167.840,141.072 167.400 C 140.899 166.769,140.868 166.805,140.926 167.569 M187.781 182.000 C 187.781 190.250,187.834 193.625,187.899 189.500 C 187.964 185.375,187.964 178.625,187.899 174.500 C 187.834 170.375,187.781 173.750,187.781 182.000 M12.592 213.600 C 12.592 234.830,12.641 243.515,12.700 232.900 C 12.759 222.285,12.759 204.915,12.700 194.300 C 12.641 183.685,12.592 192.370,12.592 213.600 M142.219 184.100 C 142.071 188.775,142.115 195.480,142.316 199.000 C 142.655 204.921,142.686 204.286,142.741 190.500 C 142.773 182.305,142.730 175.600,142.644 175.600 C 142.559 175.600,142.367 179.425,142.219 184.100 M211.380 189.600 C 211.380 197.410,211.434 200.605,211.499 196.700 C 211.565 192.795,211.565 186.405,211.499 182.500 C 211.434 178.595,211.380 181.790,211.380 189.600 M43.600 182.400 C 42.842 182.890,44.070 182.890,45.600 182.400 C 46.580 182.086,46.576 182.079,45.400 182.046 C 44.740 182.027,43.930 182.187,43.600 182.400 M49.160 183.800 C 49.834 185.105,50.388 185.828,50.385 185.400 C 50.383 185.180,50.014 184.550,49.564 184.000 C 49.021 183.336,48.885 183.269,49.160 183.800 M149.764 194.600 C 149.763 198.340,149.823 199.924,149.897 198.120 C 149.971 196.315,149.972 193.255,149.898 191.320 C 149.825 189.384,149.764 190.860,149.764 194.600 M36.093 190.800 C 36.093 191.570,36.175 191.885,36.276 191.500 C 36.376 191.115,36.376 190.485,36.276 190.100 C 36.175 189.715,36.093 190.030,36.093 190.800 M102.000 191.200 C 102.000 191.420,102.765 191.597,103.700 191.594 C 104.945 191.589,105.239 191.484,104.800 191.200 C 104.010 190.690,102.000 190.690,102.000 191.200 M111.800 191.200 C 111.664 191.420,111.934 191.600,112.400 191.600 C 112.866 191.600,113.136 191.420,113.000 191.200 C 112.864 190.980,112.594 190.800,112.400 190.800 C 112.206 190.800,111.936 190.980,111.800 191.200 M94.084 193.015 C 93.527 193.647,93.994 193.837,94.620 193.234 C 94.829 193.032,95.450 192.787,96.000 192.688 C 96.895 192.528,96.874 192.505,95.800 192.470 C 95.140 192.448,94.368 192.694,94.084 193.015 M50.534 199.200 C 50.534 200.850,50.605 201.525,50.691 200.700 C 50.778 199.875,50.778 198.525,50.691 197.700 C 50.605 196.875,50.534 197.550,50.534 199.200 M179.800 203.200 C 179.660 203.427,179.996 203.600,180.576 203.600 C 181.139 203.600,181.600 203.420,181.600 203.200 C 181.600 202.980,181.251 202.800,180.824 202.800 C 180.397 202.800,179.936 202.980,179.800 203.200 M150.093 207.600 C 150.093 208.370,150.175 208.685,150.276 208.300 C 150.376 207.915,150.376 207.285,150.276 206.900 C 150.175 206.515,150.093 206.830,150.093 207.600 M36.109 209.200 C 36.109 210.190,36.187 210.595,36.282 210.100 C 36.378 209.605,36.378 208.795,36.282 208.300 C 36.187 207.805,36.109 208.210,36.109 209.200 M80.501 211.800 C 80.505 212.680,80.587 212.993,80.683 212.495 C 80.779 211.998,80.775 211.278,80.675 210.895 C 80.575 210.513,80.496 210.920,80.501 211.800 M110.200 213.600 C 110.336 213.820,111.517 214.000,112.824 214.000 C 114.141 214.000,115.200 213.822,115.200 213.600 C 115.200 213.374,114.059 213.200,112.576 213.200 C 110.929 213.200,110.045 213.349,110.200 213.600 M105.985 214.829 L 104.600 216.058 106.200 214.945 C 107.080 214.333,107.875 213.780,107.967 213.716 C 108.058 213.652,107.962 213.600,107.752 213.600 C 107.542 213.600,106.747 214.153,105.985 214.829 M80.101 218.200 C 80.105 219.080,80.187 219.393,80.283 218.895 C 80.379 218.398,80.375 217.678,80.275 217.295 C 80.175 216.913,80.096 217.320,80.101 218.200 M118.157 222.000 C 118.157 224.970,118.220 226.185,118.297 224.700 C 118.374 223.215,118.374 220.785,118.297 219.300 C 118.220 217.815,118.157 219.030,118.157 222.000 M169.505 226.683 C 170.002 226.779,170.722 226.775,171.105 226.675 C 171.487 226.575,171.080 226.496,170.200 226.501 C 169.320 226.505,169.007 226.587,169.505 226.683 M173.907 227.090 C 174.626 227.179,175.706 227.177,176.307 227.086 C 176.908 226.995,176.320 226.922,175.000 226.924 C 173.680 226.926,173.188 227.001,173.907 227.090 M211.350 231.400 C 211.351 233.820,211.416 234.758,211.496 233.485 C 211.576 232.212,211.575 230.232,211.494 229.085 C 211.414 227.938,211.349 228.980,211.350 231.400 M186.800 230.376 C 186.800 230.829,186.980 231.200,187.200 231.200 C 187.420 231.200,187.600 230.941,187.600 230.624 C 187.600 230.307,187.420 229.936,187.200 229.800 C 186.980 229.664,186.800 229.923,186.800 230.376 M118.093 231.200 C 118.093 231.970,118.175 232.285,118.276 231.900 C 118.376 231.515,118.376 230.885,118.276 230.500 C 118.175 230.115,118.093 230.430,118.093 231.200 M80.120 232.800 C 80.120 234.010,80.195 234.505,80.287 233.900 C 80.378 233.295,80.378 232.305,80.287 231.700 C 80.195 231.095,80.120 231.590,80.120 232.800 M186.800 233.000 C 186.800 233.330,186.980 233.600,187.200 233.600 C 187.420 233.600,187.600 233.330,187.600 233.000 C 187.600 232.670,187.420 232.400,187.200 232.400 C 186.980 232.400,186.800 232.670,186.800 233.000 M80.520 240.000 C 80.520 241.210,80.595 241.705,80.687 241.100 C 80.778 240.495,80.778 239.505,80.687 238.900 C 80.595 238.295,80.520 238.790,80.520 240.000 M36.146 243.800 C 36.147 246.000,36.214 246.849,36.295 245.687 C 36.376 244.524,36.376 242.724,36.293 241.687 C 36.211 240.649,36.145 241.600,36.146 243.800 M140.950 246.587 C 140.826 246.910,140.817 247.405,140.931 247.687 C 141.044 247.969,141.151 247.810,141.168 247.333 C 141.186 246.857,141.425 246.376,141.700 246.265 C 142.092 246.107,142.089 246.056,141.687 246.032 C 141.406 246.014,141.074 246.264,140.950 246.587 M158.874 254.100 C 158.833 257.345,158.935 260.000,159.100 260.001 C 159.265 260.001,159.352 258.246,159.294 256.101 C 159.097 248.874,158.948 248.165,158.874 254.100 M129.949 259.100 C 129.472 259.709,129.478 259.740,130.000 259.343 C 130.330 259.092,130.960 258.798,131.400 258.689 C 132.160 258.503,132.157 258.490,131.349 258.446 C 130.881 258.421,130.251 258.715,129.949 259.100 M94.341 259.301 C 94.543 259.503,95.133 259.601,95.654 259.519 C 96.455 259.393,96.398 259.337,95.287 259.152 C 94.493 259.021,94.119 259.079,94.341 259.301 M194.100 259.476 C 194.485 259.576,195.115 259.576,195.500 259.476 C 195.885 259.375,195.570 259.293,194.800 259.293 C 194.030 259.293,193.715 259.375,194.100 259.476 M23.900 260.282 C 24.395 260.378,25.205 260.378,25.700 260.282 C 26.195 260.187,25.790 260.109,24.800 260.109 C 23.810 260.109,23.405 260.187,23.900 260.282 M101.113 260.295 C 102.276 260.376,104.076 260.376,105.113 260.293 C 106.151 260.211,105.200 260.145,103.000 260.146 C 100.800 260.147,99.951 260.214,101.113 260.295 M118.515 260.296 C 119.788 260.376,121.768 260.375,122.915 260.294 C 124.062 260.214,123.020 260.149,120.600 260.150 C 118.180 260.151,117.242 260.216,118.515 260.296 M167.500 260.299 C 171.735 260.364,178.665 260.364,182.900 260.299 C 187.135 260.235,183.670 260.182,175.200 260.182 C 166.730 260.182,163.265 260.235,167.500 260.299 " stroke="none" fill="#57739c" fill-rule="evenodd"></path><path id="path3" d="M36.591 157.585 C 36.889 158.068,39.200 158.153,39.200 157.682 C 39.200 157.507,38.555 157.320,37.767 157.267 C 36.860 157.206,36.429 157.323,36.591 157.585 M172.600 158.400 C 173.701 158.873,174.092 158.873,173.800 158.400 C 173.664 158.180,173.158 158.013,172.676 158.028 C 171.831 158.055,171.829 158.069,172.600 158.400 M197.317 158.297 C 198.811 158.374,201.151 158.374,202.517 158.296 C 203.882 158.218,202.660 158.155,199.800 158.155 C 196.940 158.156,195.822 158.220,197.317 158.297 M137.200 161.355 C 137.200 161.508,137.560 162.020,138.000 162.492 C 138.440 162.964,138.800 163.165,138.800 162.937 C 138.800 162.710,138.440 162.198,138.000 161.800 C 137.560 161.402,137.200 161.201,137.200 161.355 M186.828 162.900 C 186.850 164.217,186.934 164.420,187.200 163.800 C 187.679 162.684,187.679 161.200,187.200 161.200 C 186.980 161.200,186.813 161.965,186.828 162.900 M88.400 162.400 C 88.400 162.840,88.580 163.200,88.800 163.200 C 89.020 163.200,89.200 162.840,89.200 162.400 C 89.200 161.960,89.020 161.600,88.800 161.600 C 88.580 161.600,88.400 161.960,88.400 162.400 M89.301 166.600 C 89.305 167.480,89.387 167.793,89.483 167.295 C 89.579 166.798,89.575 166.078,89.475 165.695 C 89.375 165.313,89.296 165.720,89.301 166.600 M211.867 165.867 C 211.480 166.253,211.593 170.059,212.018 171.000 C 212.264 171.544,212.351 170.808,212.290 168.700 C 212.240 166.996,212.185 165.601,212.167 165.600 C 212.148 165.600,212.013 165.720,211.867 165.867 M142.000 178.467 C 142.000 181.583,142.066 184.058,142.146 183.967 C 142.492 183.572,142.705 172.800,142.366 172.800 C 142.162 172.800,142.000 175.301,142.000 178.467 M37.800 182.400 C 37.476 182.925,42.788 182.925,43.600 182.400 C 44.016 182.131,43.258 182.010,41.124 182.006 C 39.432 182.003,37.936 182.180,37.800 182.400 M104.600 182.400 C 104.086 182.621,105.374 182.752,108.200 182.766 C 111.179 182.781,112.406 182.663,112.000 182.400 C 111.265 181.925,105.705 181.925,104.600 182.400 M50.000 188.800 C 50.000 189.530,50.166 189.945,50.400 189.800 C 50.620 189.664,50.800 189.214,50.800 188.800 C 50.800 188.386,50.620 187.936,50.400 187.800 C 50.166 187.655,50.000 188.070,50.000 188.800 M50.000 194.176 C 50.000 195.399,50.180 196.400,50.400 196.400 C 50.620 196.400,50.800 195.511,50.800 194.424 C 50.800 193.337,50.620 192.336,50.400 192.200 C 50.152 192.047,50.000 192.796,50.000 194.176 M86.778 197.900 L 85.400 199.400 86.900 198.022 C 88.296 196.738,88.584 196.400,88.278 196.400 C 88.212 196.400,87.537 197.075,86.778 197.900 M142.070 218.500 C 142.024 232.880,142.137 240.400,142.400 240.400 C 142.855 240.400,142.868 209.273,142.416 201.400 C 142.250 198.504,142.112 205.285,142.070 218.500 M50.000 204.157 C 50.000 205.857,50.156 207.151,50.347 207.033 C 50.757 206.779,50.704 201.771,50.287 201.353 C 50.129 201.196,50.000 202.457,50.000 204.157 M149.452 202.100 C 149.072 203.518,149.160 205.600,149.600 205.600 C 149.820 205.600,150.000 204.610,150.000 203.400 C 150.000 201.043,149.838 200.659,149.452 202.100 M211.857 212.459 C 211.531 215.577,211.590 220.753,211.983 223.600 C 212.194 225.126,212.305 223.380,212.344 217.900 C 212.403 209.639,212.287 208.346,211.857 212.459 M117.206 215.500 C 117.203 215.995,117.380 216.400,117.600 216.400 C 118.101 216.400,118.101 215.976,117.600 215.200 C 117.286 214.715,117.211 214.772,117.206 215.500 M172.272 227.200 C 172.380 227.310,174.960 227.400,178.005 227.400 C 181.049 227.400,183.291 227.260,182.985 227.088 C 182.391 226.755,171.943 226.864,172.272 227.200 M118.101 228.600 C 118.105 229.480,118.187 229.793,118.283 229.295 C 118.379 228.798,118.375 228.078,118.275 227.695 C 118.175 227.313,118.096 227.720,118.101 228.600 M186.800 231.800 C 186.800 232.130,186.980 232.400,187.200 232.400 C 187.420 232.400,187.600 232.130,187.600 231.800 C 187.600 231.470,187.420 231.200,187.200 231.200 C 186.980 231.200,186.800 231.470,186.800 231.800 M211.320 237.600 C 211.320 238.810,211.395 239.305,211.487 238.700 C 211.578 238.095,211.578 237.105,211.487 236.500 C 211.395 235.895,211.320 236.390,211.320 237.600 M11.693 255.600 C 11.693 256.370,11.775 256.685,11.876 256.300 C 11.976 255.915,11.976 255.285,11.876 254.900 C 11.775 254.515,11.693 254.830,11.693 255.600 " stroke="none" fill="#6c84ac" fill-rule="evenodd"></path><path id="path4" d="M29.000 157.600 C 28.841 157.857,30.204 158.000,32.800 158.000 C 35.396 158.000,36.759 157.857,36.600 157.600 C 36.464 157.380,34.754 157.200,32.800 157.200 C 30.846 157.200,29.136 157.380,29.000 157.600 M52.000 157.600 C 52.000 157.820,52.540 158.000,53.200 158.000 C 53.860 158.000,54.400 157.820,54.400 157.600 C 54.400 157.380,53.860 157.200,53.200 157.200 C 52.540 157.200,52.000 157.380,52.000 157.600 M90.800 157.600 C 90.800 157.820,90.440 158.000,90.000 158.000 C 89.556 158.000,89.200 158.267,89.200 158.600 C 89.200 159.387,89.601 159.340,90.700 158.423 C 91.669 157.615,91.838 157.200,91.200 157.200 C 90.980 157.200,90.800 157.380,90.800 157.600 M99.200 157.600 C 99.200 157.860,104.459 158.000,114.176 158.000 C 123.729 158.000,129.242 157.855,129.400 157.600 C 129.563 157.336,124.471 157.200,114.424 157.200 C 104.541 157.200,99.200 157.340,99.200 157.600 M149.700 157.798 C 149.310 158.241,149.221 163.251,149.293 180.483 L 149.386 202.600 149.593 180.800 C 149.707 168.810,149.946 158.775,150.124 158.500 C 150.370 158.119,153.162 158.000,161.824 158.000 C 169.141 158.000,173.200 157.857,173.200 157.600 C 173.200 156.907,150.314 157.100,149.700 157.798 M188.600 157.600 C 188.744 157.833,191.004 158.000,194.024 158.000 C 197.208 158.000,199.200 157.846,199.200 157.600 C 199.200 157.353,197.125 157.200,193.776 157.200 C 190.263 157.200,188.440 157.341,188.600 157.600 M200.000 157.600 C 200.809 158.123,210.400 158.123,210.400 157.600 C 210.400 157.352,208.304 157.202,204.900 157.206 C 201.201 157.210,199.596 157.339,200.000 157.600 M210.994 157.698 C 211.521 159.837,212.400 160.900,212.400 159.400 C 212.400 159.070,212.220 158.800,212.000 158.800 C 211.780 158.800,211.600 158.541,211.600 158.224 C 211.600 157.907,211.436 157.546,211.235 157.422 C 211.034 157.298,210.926 157.422,210.994 157.698 M58.000 158.400 C 58.000 158.901,58.424 158.901,59.200 158.400 C 59.685 158.086,59.628 158.011,58.900 158.006 C 58.405 158.003,58.000 158.180,58.000 158.400 M187.600 158.557 C 187.600 158.937,187.420 159.136,187.200 159.000 C 186.967 158.856,186.800 159.263,186.800 159.976 C 186.800 160.649,186.956 161.200,187.148 161.200 C 187.522 161.200,188.099 158.365,187.788 158.054 C 187.684 157.951,187.600 158.177,187.600 158.557 M60.800 159.200 C 60.800 159.420,61.070 159.600,61.400 159.600 C 61.730 159.600,62.000 159.420,62.000 159.200 C 62.000 158.980,61.730 158.800,61.400 158.800 C 61.070 158.800,60.800 158.980,60.800 159.200 M133.600 159.200 C 133.600 159.420,133.870 159.600,134.200 159.600 C 134.530 159.600,134.800 159.420,134.800 159.200 C 134.800 158.980,134.530 158.800,134.200 158.800 C 133.870 158.800,133.600 158.980,133.600 159.200 M88.400 160.800 C 88.400 161.240,88.580 161.600,88.800 161.600 C 89.020 161.600,89.200 161.240,89.200 160.800 C 89.200 160.360,89.020 160.000,88.800 160.000 C 88.580 160.000,88.400 160.360,88.400 160.800 M16.900 163.454 C 15.745 164.625,14.800 165.843,14.800 166.159 C 14.800 166.475,14.599 166.800,14.354 166.882 C 14.109 166.964,13.983 167.384,14.073 167.815 C 14.203 168.438,14.394 168.270,14.998 167.000 C 15.416 166.120,15.858 165.306,15.979 165.190 C 17.247 163.986,19.310 161.583,19.174 161.469 C 19.078 161.389,18.055 162.282,16.900 163.454 M67.658 163.300 C 68.383 164.015,69.381 165.050,69.876 165.600 C 70.370 166.150,70.780 166.404,70.787 166.164 C 70.805 165.568,67.395 162.000,66.809 162.000 C 66.550 162.000,66.932 162.585,67.658 163.300 M88.400 164.600 C 88.400 165.370,88.580 166.000,88.800 166.000 C 89.020 166.000,89.200 165.370,89.200 164.600 C 89.200 163.830,89.020 163.200,88.800 163.200 C 88.580 163.200,88.400 163.830,88.400 164.600 M187.052 164.100 C 186.624 165.699,186.764 197.200,187.200 197.200 C 187.460 197.200,187.600 191.267,187.600 180.200 C 187.600 163.628,187.553 162.233,187.052 164.100 M140.400 165.800 C 140.400 166.130,140.580 166.400,140.800 166.400 C 141.020 166.400,141.200 166.130,141.200 165.800 C 141.200 165.470,141.020 165.200,140.800 165.200 C 140.580 165.200,140.400 165.470,140.400 165.800 M71.600 168.200 C 71.600 168.530,71.780 168.800,72.000 168.800 C 72.220 168.800,72.400 168.530,72.400 168.200 C 72.400 167.870,72.220 167.600,72.000 167.600 C 71.780 167.600,71.600 167.870,71.600 168.200 M13.200 169.624 C 13.200 170.077,13.380 170.336,13.600 170.200 C 13.820 170.064,14.000 169.693,14.000 169.376 C 14.000 169.059,13.820 168.800,13.600 168.800 C 13.380 168.800,13.200 169.171,13.200 169.624 M72.400 169.800 C 72.400 170.130,72.580 170.400,72.800 170.400 C 73.020 170.400,73.200 170.130,73.200 169.800 C 73.200 169.470,73.020 169.200,72.800 169.200 C 72.580 169.200,72.400 169.470,72.400 169.800 M142.000 171.600 C 142.000 172.260,142.180 172.800,142.400 172.800 C 142.620 172.800,142.800 172.260,142.800 171.600 C 142.800 170.940,142.620 170.400,142.400 170.400 C 142.180 170.400,142.000 170.940,142.000 171.600 M211.682 191.800 C 211.695 203.680,211.847 212.500,212.018 211.400 C 212.445 208.662,212.428 171.996,212.000 171.000 C 211.803 170.542,211.667 179.427,211.682 191.800 M12.428 172.700 C 12.451 173.903,12.524 174.042,12.800 173.400 C 13.278 172.288,13.278 171.200,12.800 171.200 C 12.580 171.200,12.413 171.875,12.428 172.700 M89.200 173.224 C 89.200 173.677,89.380 173.936,89.600 173.800 C 89.820 173.664,90.000 173.293,90.000 172.976 C 90.000 172.659,89.820 172.400,89.600 172.400 C 89.380 172.400,89.200 172.771,89.200 173.224 M74.000 175.000 C 74.000 175.330,74.180 175.600,74.400 175.600 C 74.620 175.600,74.800 175.330,74.800 175.000 C 74.800 174.670,74.620 174.400,74.400 174.400 C 74.180 174.400,74.000 174.670,74.000 175.000 M11.647 215.076 C 11.673 236.814,11.832 254.060,12.000 253.400 C 12.476 251.530,12.476 176.094,12.000 175.800 C 11.734 175.636,11.616 188.817,11.647 215.076 M91.100 177.065 C 91.375 177.176,91.600 177.530,91.600 177.852 C 91.600 178.609,93.391 180.400,94.148 180.400 C 94.470 180.400,94.800 180.601,94.882 180.846 C 94.964 181.091,95.384 181.209,95.815 181.109 C 96.507 180.948,96.471 180.873,95.515 180.478 C 94.918 180.232,93.724 179.304,92.861 178.415 C 91.999 177.527,91.138 176.814,90.947 176.832 C 90.756 176.849,90.825 176.954,91.100 177.065 M99.600 182.400 C 99.600 182.883,103.476 182.883,104.600 182.400 C 105.149 182.164,104.492 182.047,102.500 182.028 C 100.815 182.012,99.600 182.168,99.600 182.400 M112.000 182.400 C 112.788 182.909,114.400 182.909,114.400 182.400 C 114.400 182.180,113.725 182.003,112.900 182.006 C 111.784 182.011,111.554 182.112,112.000 182.400 M114.983 182.827 C 114.838 183.062,115.097 183.353,115.560 183.474 C 116.022 183.594,116.400 183.888,116.400 184.127 C 116.400 184.431,116.533 184.427,116.845 184.115 C 117.497 183.463,116.867 182.725,115.916 183.027 C 115.372 183.199,115.191 183.138,115.374 182.843 C 115.524 182.599,115.557 182.400,115.447 182.400 C 115.337 182.400,115.128 182.592,114.983 182.827 M47.200 183.200 C 47.200 183.420,47.393 183.600,47.629 183.600 C 48.266 183.600,49.200 184.653,49.200 185.371 C 49.200 185.717,49.380 186.000,49.600 186.000 C 50.339 186.000,50.009 184.918,48.945 183.855 C 47.849 182.758,47.200 182.514,47.200 183.200 M117.200 186.376 C 117.200 187.023,117.380 187.664,117.600 187.800 C 117.838 187.947,118.000 187.471,118.000 186.624 C 118.000 185.841,117.820 185.200,117.600 185.200 C 117.380 185.200,117.200 185.729,117.200 186.376 M50.267 189.867 C 49.857 190.277,49.951 191.922,50.400 192.200 C 50.638 192.347,50.800 191.871,50.800 191.024 C 50.800 189.562,50.728 189.405,50.267 189.867 M99.200 191.200 C 99.200 191.420,99.650 191.600,100.200 191.600 C 100.750 191.600,101.200 191.420,101.200 191.200 C 101.200 190.980,100.750 190.800,100.200 190.800 C 99.650 190.800,99.200 190.980,99.200 191.200 M93.200 192.800 C 93.200 193.020,93.470 193.200,93.800 193.200 C 94.130 193.200,94.400 193.020,94.400 192.800 C 94.400 192.580,94.130 192.400,93.800 192.400 C 93.470 192.400,93.200 192.580,93.200 192.800 M90.000 194.400 C 90.000 194.620,90.270 194.800,90.600 194.800 C 90.930 194.800,91.200 194.620,91.200 194.400 C 91.200 194.180,90.930 194.000,90.600 194.000 C 90.270 194.000,90.000 194.180,90.000 194.400 M85.700 197.816 C 84.985 198.565,84.400 199.437,84.400 199.755 C 84.400 200.073,84.175 200.424,83.900 200.535 C 83.625 200.646,83.591 200.751,83.824 200.768 C 84.057 200.786,85.102 199.810,86.147 198.600 C 88.200 196.222,87.834 195.581,85.700 197.816 M50.093 199.200 C 50.093 199.970,50.175 200.285,50.276 199.900 C 50.376 199.515,50.376 198.885,50.276 198.500 C 50.175 198.115,50.093 198.430,50.093 199.200 M174.800 200.200 C 174.800 200.530,174.980 200.800,175.200 200.800 C 175.420 200.800,175.600 200.530,175.600 200.200 C 175.600 199.870,175.420 199.600,175.200 199.600 C 174.980 199.600,174.800 199.870,174.800 200.200 M186.000 200.400 C 186.000 200.840,185.820 201.200,185.600 201.200 C 185.380 201.200,185.206 201.425,185.213 201.700 C 185.221 201.975,185.581 201.775,186.013 201.256 C 186.875 200.221,187.020 199.600,186.400 199.600 C 186.180 199.600,186.000 199.960,186.000 200.400 M82.800 201.967 C 82.800 202.388,82.599 202.800,82.354 202.882 C 82.109 202.964,81.980 203.384,82.067 203.815 C 82.198 204.467,82.341 204.370,82.912 203.239 C 83.699 201.680,83.767 201.200,83.200 201.200 C 82.980 201.200,82.800 201.545,82.800 201.967 M80.860 205.252 C 80.575 205.709,80.534 205.964,80.770 205.818 C 81.007 205.672,81.205 205.788,81.212 206.076 C 81.219 206.382,81.403 206.293,81.654 205.861 C 82.265 204.809,81.503 204.223,80.860 205.252 M149.200 207.400 C 149.200 208.390,149.380 209.200,149.600 209.200 C 149.820 209.200,150.000 208.390,150.000 207.400 C 150.000 206.410,149.820 205.600,149.600 205.600 C 149.380 205.600,149.200 206.410,149.200 207.400 M80.440 208.300 C 80.475 209.639,80.514 209.692,80.800 208.800 C 81.258 207.370,81.258 206.800,80.800 206.800 C 80.580 206.800,80.418 207.475,80.440 208.300 M36.400 209.976 C 36.400 210.429,36.580 210.800,36.800 210.800 C 37.020 210.800,37.200 210.541,37.200 210.224 C 37.200 209.907,37.020 209.536,36.800 209.400 C 36.580 209.264,36.400 209.523,36.400 209.976 M48.104 210.612 C 47.759 210.992,47.739 211.239,48.039 211.424 C 48.631 211.790,49.471 210.907,48.980 210.433 C 48.748 210.210,48.407 210.279,48.104 210.612 M79.600 225.933 C 79.600 234.770,79.735 242.000,79.900 242.000 C 80.259 242.000,80.208 210.475,79.849 210.116 C 79.712 209.979,79.600 217.097,79.600 225.933 M150.000 211.767 C 150.000 212.078,150.178 212.393,150.397 212.467 C 150.615 212.540,150.834 213.092,150.883 213.693 C 150.933 214.295,151.110 214.650,151.277 214.483 C 151.643 214.117,150.805 211.200,150.333 211.200 C 150.150 211.200,150.000 211.455,150.000 211.767 M37.200 211.984 C 37.200 212.793,40.143 213.261,42.800 212.876 L 45.400 212.499 41.700 212.449 C 39.533 212.420,38.000 212.234,38.000 212.000 C 38.000 211.780,37.820 211.600,37.600 211.600 C 37.380 211.600,37.200 211.773,37.200 211.984 M46.000 212.000 C 46.000 212.220,46.259 212.400,46.576 212.400 C 46.893 212.400,47.264 212.220,47.400 212.000 C 47.536 211.780,47.277 211.600,46.824 211.600 C 46.371 211.600,46.000 211.780,46.000 212.000 M107.900 213.876 C 107.515 213.976,107.200 214.326,107.200 214.653 C 107.200 214.980,107.019 215.135,106.797 214.998 C 106.297 214.689,104.990 215.932,105.407 216.319 C 105.573 216.474,105.790 216.375,105.888 216.100 C 105.986 215.825,106.277 215.600,106.533 215.600 C 106.790 215.599,107.523 215.149,108.162 214.600 C 109.309 213.613,109.274 213.517,107.900 213.876 M151.600 215.600 C 151.600 216.347,151.707 216.453,152.080 216.080 C 152.453 215.707,152.453 215.493,152.080 215.120 C 151.707 214.747,151.600 214.853,151.600 215.600 M117.200 224.800 C 117.200 229.715,117.354 233.200,117.572 233.200 C 117.777 233.200,118.023 233.515,118.118 233.900 C 118.214 234.285,118.226 234.082,118.146 233.450 C 118.066 232.818,118.000 228.722,118.000 224.350 C 118.000 219.317,117.853 216.400,117.600 216.400 C 117.346 216.400,117.200 219.467,117.200 224.800 M152.400 216.800 C 152.400 217.020,152.580 217.200,152.800 217.200 C 153.020 217.200,153.200 217.486,153.200 217.835 C 153.200 218.578,157.468 222.800,158.220 222.800 C 158.503 222.800,158.814 223.025,158.912 223.300 C 159.010 223.575,159.249 223.651,159.442 223.470 C 159.753 223.178,158.977 222.498,158.108 222.299 C 157.616 222.187,154.410 218.707,153.687 217.500 C 153.024 216.395,152.400 216.055,152.400 216.800 M74.000 218.600 C 74.000 218.930,74.180 219.200,74.400 219.200 C 74.620 219.200,74.800 218.930,74.800 218.600 C 74.800 218.270,74.620 218.000,74.400 218.000 C 74.180 218.000,74.000 218.270,74.000 218.600 M211.656 229.900 C 211.620 235.071,211.745 238.000,212.000 238.000 C 212.470 238.000,212.482 227.368,212.017 224.000 C 211.807 222.486,211.695 224.327,211.656 229.900 M71.600 226.200 C 71.600 226.530,71.780 226.800,72.000 226.800 C 72.220 226.800,72.400 226.530,72.400 226.200 C 72.400 225.870,72.220 225.600,72.000 225.600 C 71.780 225.600,71.600 225.870,71.600 226.200 M165.600 226.400 C 165.600 226.620,165.870 226.800,166.200 226.800 C 166.530 226.800,166.800 226.620,166.800 226.400 C 166.800 226.180,166.530 226.000,166.200 226.000 C 165.870 226.000,165.600 226.180,165.600 226.400 M169.600 227.200 C 169.600 227.420,170.365 227.597,171.300 227.594 C 172.545 227.589,172.839 227.484,172.400 227.200 C 171.610 226.690,169.600 226.690,169.600 227.200 M178.307 227.490 C 179.026 227.579,180.106 227.577,180.707 227.486 C 181.308 227.395,180.720 227.322,179.400 227.324 C 178.080 227.326,177.588 227.401,178.307 227.490 M185.259 228.000 C 185.211 228.862,186.261 230.148,186.585 229.624 C 186.912 229.096,186.466 228.312,186.003 228.598 C 185.814 228.715,185.578 228.493,185.477 228.105 C 185.349 227.617,185.282 227.585,185.259 228.000 M66.500 232.198 C 65.931 232.845,65.861 233.200,66.304 233.200 C 66.471 233.200,66.832 232.840,67.107 232.400 C 67.678 231.487,67.251 231.345,66.500 232.198 M105.200 233.454 C 105.200 233.862,107.269 235.664,107.487 235.446 C 107.596 235.338,107.224 234.788,106.661 234.224 C 105.640 233.204,105.200 232.972,105.200 233.454 M185.724 234.573 C 185.462 234.871,185.356 235.222,185.487 235.354 C 185.772 235.639,186.800 234.853,186.800 234.351 C 186.800 233.840,186.272 233.948,185.724 234.573 M109.200 236.000 C 109.200 236.220,109.470 236.400,109.800 236.400 C 110.130 236.400,110.400 236.220,110.400 236.000 C 110.400 235.780,110.130 235.600,109.800 235.600 C 109.470 235.600,109.200 235.780,109.200 236.000 M55.200 236.800 C 55.200 237.020,55.661 237.200,56.224 237.200 C 56.804 237.200,57.140 237.027,57.000 236.800 C 56.864 236.580,56.403 236.400,55.976 236.400 C 55.549 236.400,55.200 236.580,55.200 236.800 M142.000 242.000 C 142.000 242.880,142.180 243.600,142.400 243.600 C 142.620 243.600,142.800 242.880,142.800 242.000 C 142.800 241.120,142.620 240.400,142.400 240.400 C 142.180 240.400,142.000 241.120,142.000 242.000 M159.600 242.600 C 159.600 242.930,159.780 243.200,160.000 243.200 C 160.220 243.200,160.400 242.930,160.400 242.600 C 160.400 242.270,160.220 242.000,160.000 242.000 C 159.780 242.000,159.600 242.270,159.600 242.600 M210.800 242.576 C 210.800 242.893,210.980 243.264,211.200 243.400 C 211.420 243.536,211.600 243.277,211.600 242.824 C 211.600 242.371,211.420 242.000,211.200 242.000 C 210.980 242.000,210.800 242.259,210.800 242.576 M80.428 244.076 C 80.413 244.888,80.580 245.664,80.800 245.800 C 81.020 245.936,81.200 246.317,81.200 246.647 C 81.200 246.977,81.007 247.128,80.770 246.982 C 80.534 246.836,80.575 247.091,80.860 247.548 C 81.792 249.040,81.964 247.857,81.203 245.200 C 80.530 242.853,80.454 242.744,80.428 244.076 M210.000 245.800 C 210.000 246.130,210.180 246.400,210.400 246.400 C 210.620 246.400,210.800 246.130,210.800 245.800 C 210.800 245.470,210.620 245.200,210.400 245.200 C 210.180 245.200,210.000 245.470,210.000 245.800 M82.000 249.200 C 82.000 249.640,82.180 250.000,82.400 250.000 C 82.620 250.000,82.800 250.270,82.800 250.600 C 82.800 250.930,82.980 251.200,83.200 251.200 C 83.420 251.200,83.600 251.383,83.600 251.607 C 83.600 252.085,88.783 257.350,89.020 257.114 C 89.108 257.025,87.963 255.704,86.476 254.177 C 84.988 252.649,83.454 250.725,83.067 249.900 C 82.274 248.212,82.000 248.032,82.000 249.200 M204.900 253.900 C 203.525 255.275,202.584 256.400,202.808 256.400 C 203.342 256.400,207.693 252.049,207.527 251.682 C 207.457 251.527,206.275 252.525,204.900 253.900 M35.675 252.739 C 35.744 253.145,35.553 253.775,35.251 254.139 C 34.949 254.502,34.839 254.800,35.007 254.800 C 35.495 254.800,36.373 253.464,36.387 252.700 C 36.394 252.315,36.209 252.000,35.975 252.000 C 35.741 252.000,35.606 252.332,35.675 252.739 M32.619 257.414 C 31.749 258.367,30.873 259.113,30.672 259.073 C 30.471 259.033,30.252 259.325,30.185 259.722 C 30.082 260.341,30.159 260.369,30.721 259.922 C 31.793 259.069,34.800 256.038,34.800 255.811 C 34.800 255.285,34.078 255.816,32.619 257.414 M135.459 256.206 C 135.053 256.503,134.837 256.937,134.981 257.169 C 135.135 257.419,135.005 257.500,134.661 257.368 C 134.342 257.246,133.962 257.338,133.817 257.573 C 133.662 257.824,133.898 258.000,134.389 258.000 C 134.849 258.000,135.341 257.685,135.483 257.300 C 135.625 256.915,135.930 256.475,136.159 256.322 C 136.389 256.169,136.492 255.958,136.388 255.854 C 136.284 255.750,135.866 255.909,135.459 256.206 M11.641 257.524 C 11.613 258.155,11.442 258.350,11.100 258.139 C 10.825 257.969,11.050 258.398,11.600 259.093 C 12.623 260.384,13.200 260.712,13.200 260.000 C 13.200 259.780,13.038 259.600,12.840 259.600 C 12.642 259.600,12.300 258.925,12.081 258.100 C 11.801 257.045,11.670 256.874,11.641 257.524 M90.065 257.853 C 90.156 258.332,90.615 258.647,91.346 258.731 C 92.108 258.818,92.394 258.713,92.209 258.414 C 92.057 258.168,91.566 258.084,91.116 258.227 C 90.600 258.391,90.394 258.333,90.556 258.070 C 90.698 257.842,90.613 257.532,90.368 257.380 C 90.088 257.207,89.976 257.383,90.065 257.853 M95.441 259.933 C 95.313 260.140,95.577 260.405,96.027 260.523 C 96.526 260.653,96.788 260.564,96.698 260.294 C 96.497 259.692,95.727 259.471,95.441 259.933 M127.400 260.000 C 127.264 260.220,127.523 260.400,127.976 260.400 C 128.429 260.400,128.800 260.220,128.800 260.000 C 128.800 259.780,128.541 259.600,128.224 259.600 C 127.907 259.600,127.536 259.780,127.400 260.000 M193.400 260.000 C 193.264 260.220,193.523 260.400,193.976 260.400 C 194.429 260.400,194.800 260.220,194.800 260.000 C 194.800 259.780,194.541 259.600,194.224 259.600 C 193.907 259.600,193.536 259.780,193.400 260.000 M13.449 260.720 C 13.341 260.896,13.580 261.245,13.982 261.496 C 14.608 261.887,14.684 261.841,14.510 261.176 C 14.300 260.375,13.796 260.159,13.449 260.720 M22.600 260.800 C 22.449 261.044,23.063 261.200,24.176 261.200 C 25.179 261.200,26.000 261.020,26.000 260.800 C 26.000 260.580,25.291 260.400,24.424 260.400 C 23.557 260.400,22.736 260.580,22.600 260.800 M99.800 260.800 C 99.956 261.052,104.471 261.200,112.024 261.200 C 119.741 261.200,124.000 261.058,124.000 260.800 C 124.000 260.542,119.659 260.400,111.776 260.400 C 103.729 260.400,99.637 260.537,99.800 260.800 M160.200 260.800 C 160.357 261.055,165.671 261.200,174.824 261.200 C 184.141 261.200,189.200 261.059,189.200 260.800 C 189.200 260.541,184.059 260.400,174.576 260.400 C 164.929 260.400,160.037 260.536,160.200 260.800 " stroke="none" fill="#748cac" fill-rule="evenodd"></path><path id="path5" d="M43.800 157.600 C 43.936 157.820,45.016 158.000,46.200 158.000 C 47.384 158.000,48.464 157.820,48.600 157.600 C 48.755 157.349,47.863 157.200,46.200 157.200 C 44.537 157.200,43.645 157.349,43.800 157.600 M92.624 157.638 C 92.920 158.118,95.888 158.105,96.186 157.623 C 96.321 157.405,95.570 157.252,94.410 157.261 C 93.304 157.270,92.501 157.440,92.624 157.638 M40.905 158.287 C 41.514 158.379,42.414 158.377,42.905 158.282 C 43.397 158.187,42.900 158.111,41.800 158.114 C 40.700 158.117,40.297 158.195,40.905 158.287 M49.300 158.276 C 49.685 158.376,50.315 158.376,50.700 158.276 C 51.085 158.175,50.770 158.093,50.000 158.093 C 49.230 158.093,48.915 158.175,49.300 158.276 M150.186 180.000 C 150.186 191.330,150.237 195.965,150.300 190.300 C 150.362 184.635,150.362 175.365,150.300 169.700 C 150.237 164.035,150.186 168.670,150.186 180.000 M89.724 168.200 C 89.726 169.520,89.801 170.012,89.890 169.293 C 89.979 168.574,89.977 167.494,89.886 166.893 C 89.795 166.292,89.722 166.880,89.724 168.200 M73.606 176.671 C 73.618 177.284,74.355 178.178,74.626 177.907 C 74.774 177.759,74.604 177.347,74.248 176.990 C 73.891 176.634,73.603 176.491,73.606 176.671 M74.554 196.000 C 74.554 198.750,74.618 199.875,74.696 198.500 C 74.774 197.125,74.774 194.875,74.696 193.500 C 74.618 192.125,74.554 193.250,74.554 196.000 M105.500 191.897 C 107.095 191.973,109.705 191.973,111.300 191.897 C 112.895 191.821,111.590 191.759,108.400 191.759 C 105.210 191.759,103.905 191.821,105.500 191.897 M182.200 203.200 C 182.064 203.420,181.378 203.627,180.676 203.660 C 179.590 203.711,179.552 203.744,180.418 203.879 C 180.978 203.966,181.968 203.760,182.618 203.421 C 183.350 203.040,183.542 202.804,183.124 202.802 C 182.752 202.801,182.336 202.980,182.200 203.200 M110.307 213.090 C 111.026 213.179,112.106 213.177,112.707 213.086 C 113.308 212.995,112.720 212.922,111.400 212.924 C 110.080 212.926,109.588 213.001,110.307 213.090 M80.509 218.800 C 80.509 219.790,80.587 220.195,80.682 219.700 C 80.778 219.205,80.778 218.395,80.682 217.900 C 80.587 217.405,80.509 217.810,80.509 218.800 M80.528 232.000 C 80.528 233.430,80.601 234.015,80.689 233.300 C 80.778 232.585,80.778 231.415,80.689 230.700 C 80.601 229.985,80.528 230.570,80.528 232.000 M210.893 238.800 C 210.893 239.570,210.975 239.885,211.076 239.500 C 211.176 239.115,211.176 238.485,211.076 238.100 C 210.975 237.715,210.893 238.030,210.893 238.800 " stroke="none" fill="#39598c" fill-rule="evenodd"></path><path id="path6" d="M42.000 157.600 C 42.000 157.820,42.461 158.000,43.024 158.000 C 43.604 158.000,43.940 157.827,43.800 157.600 C 43.664 157.380,43.203 157.200,42.776 157.200 C 42.349 157.200,42.000 157.380,42.000 157.600 M48.600 157.600 C 48.464 157.820,48.723 158.000,49.176 158.000 C 49.629 158.000,50.000 157.820,50.000 157.600 C 50.000 157.380,49.741 157.200,49.424 157.200 C 49.107 157.200,48.736 157.380,48.600 157.600 M36.900 158.287 C 37.505 158.378,38.495 158.378,39.100 158.287 C 39.705 158.195,39.210 158.120,38.000 158.120 C 36.790 158.120,36.295 158.195,36.900 158.287 M109.700 158.298 C 111.625 158.371,114.775 158.371,116.700 158.298 C 118.625 158.225,117.050 158.165,113.200 158.165 C 109.350 158.165,107.775 158.225,109.700 158.298 M187.742 163.800 C 187.741 165.780,187.808 166.640,187.892 165.712 C 187.976 164.784,187.977 163.164,187.895 162.112 C 187.812 161.060,187.743 161.820,187.742 163.800 M211.361 169.600 C 211.361 173.010,211.422 174.405,211.497 172.700 C 211.572 170.995,211.572 168.205,211.497 166.500 C 211.422 164.795,211.361 166.190,211.361 169.600 M89.200 170.776 C 89.200 171.229,89.380 171.600,89.600 171.600 C 89.820 171.600,90.000 171.341,90.000 171.024 C 90.000 170.707,89.820 170.336,89.600 170.200 C 89.380 170.064,89.200 170.323,89.200 170.776 M141.791 206.800 C 141.791 225.610,141.840 233.305,141.900 223.900 C 141.960 214.495,141.960 199.105,141.900 189.700 C 141.840 180.295,141.791 187.990,141.791 206.800 M149.724 179.000 C 149.726 180.320,149.801 180.812,149.890 180.093 C 149.979 179.374,149.977 178.294,149.886 177.693 C 149.795 177.092,149.722 177.680,149.724 179.000 M39.513 181.895 C 40.676 181.976,42.476 181.976,43.513 181.893 C 44.551 181.811,43.600 181.745,41.400 181.746 C 39.200 181.747,38.351 181.814,39.513 181.895 M105.500 181.898 C 107.315 181.972,110.285 181.972,112.100 181.898 C 113.915 181.823,112.430 181.763,108.800 181.763 C 105.170 181.763,103.685 181.823,105.500 181.898 M149.701 186.600 C 149.705 187.480,149.787 187.793,149.883 187.295 C 149.979 186.798,149.975 186.078,149.875 185.695 C 149.775 185.313,149.696 185.720,149.701 186.600 M36.114 187.800 C 36.117 188.900,36.195 189.303,36.287 188.695 C 36.379 188.086,36.377 187.186,36.282 186.695 C 36.187 186.203,36.111 186.700,36.114 187.800 M50.973 197.400 C 50.973 202.900,51.030 205.205,51.099 202.523 C 51.168 199.841,51.168 195.341,51.099 192.523 C 51.030 189.705,50.974 191.900,50.973 197.400 M104.800 191.200 C 105.593 191.713,111.483 191.713,111.800 191.200 C 111.958 190.944,110.639 190.802,108.124 190.806 C 105.443 190.810,104.390 190.935,104.800 191.200 M113.000 191.200 C 113.136 191.420,113.507 191.600,113.824 191.600 C 114.141 191.600,114.400 191.420,114.400 191.200 C 114.400 190.980,114.029 190.800,113.576 190.800 C 113.123 190.800,112.864 190.980,113.000 191.200 M36.168 199.800 C 36.168 204.200,36.226 206.055,36.298 203.921 C 36.370 201.788,36.370 198.188,36.299 195.921 C 36.227 193.655,36.168 195.400,36.168 199.800 M150.137 203.400 C 150.139 205.160,150.209 205.830,150.293 204.889 C 150.378 203.949,150.377 202.509,150.291 201.689 C 150.205 200.870,150.136 201.640,150.137 203.400 M211.377 215.400 C 211.377 222.000,211.432 224.756,211.499 221.525 C 211.566 218.293,211.566 212.893,211.499 209.525 C 211.432 206.156,211.377 208.800,211.377 215.400 M40.700 213.482 C 41.195 213.578,42.005 213.578,42.500 213.482 C 42.995 213.387,42.590 213.309,41.600 213.309 C 40.610 213.309,40.205 213.387,40.700 213.482 M80.520 215.200 C 80.520 216.410,80.595 216.905,80.687 216.300 C 80.778 215.695,80.778 214.705,80.687 214.100 C 80.595 213.495,80.520 213.990,80.520 215.200 M80.159 225.200 C 80.159 228.390,80.221 229.695,80.297 228.100 C 80.373 226.505,80.373 223.895,80.297 222.300 C 80.221 220.705,80.159 222.010,80.159 225.200 M172.100 226.676 C 172.485 226.776,173.115 226.776,173.500 226.676 C 173.885 226.575,173.570 226.493,172.800 226.493 C 172.030 226.493,171.715 226.575,172.100 226.676 M177.513 226.695 C 178.676 226.776,180.476 226.776,181.513 226.693 C 182.551 226.611,181.600 226.545,179.400 226.546 C 177.200 226.547,176.351 226.614,177.513 226.695 M187.693 232.000 C 187.693 232.770,187.775 233.085,187.876 232.700 C 187.976 232.315,187.976 231.685,187.876 231.300 C 187.775 230.915,187.693 231.230,187.693 232.000 M80.514 236.200 C 80.517 237.300,80.595 237.703,80.687 237.095 C 80.779 236.486,80.777 235.586,80.682 235.095 C 80.587 234.603,80.511 235.100,80.514 236.200 M107.400 235.889 C 107.840 235.998,108.429 236.272,108.709 236.500 C 109.093 236.811,109.156 236.751,108.966 236.257 C 108.813 235.857,108.300 235.618,107.657 235.646 C 106.823 235.683,106.769 235.734,107.400 235.889 M173.913 236.695 C 175.076 236.776,176.876 236.776,177.913 236.693 C 178.951 236.611,178.000 236.545,175.800 236.546 C 173.600 236.547,172.751 236.614,173.913 236.695 M204.975 253.300 L 203.800 254.600 205.100 253.425 C 206.312 252.330,206.584 252.000,206.275 252.000 C 206.206 252.000,205.621 252.585,204.975 253.300 M109.500 260.295 C 110.655 260.376,112.545 260.376,113.700 260.295 C 114.855 260.214,113.910 260.148,111.600 260.148 C 109.290 260.148,108.345 260.214,109.500 260.295 " stroke="none" fill="#446494" fill-rule="evenodd"></path><path id="path7" d="M44.691 158.289 C 45.401 158.377,46.661 158.379,47.491 158.292 C 48.321 158.205,47.740 158.133,46.200 158.131 C 44.660 158.129,43.981 158.200,44.691 158.289 M93.300 158.287 C 93.905 158.378,94.895 158.378,95.500 158.287 C 96.105 158.195,95.610 158.120,94.400 158.120 C 93.190 158.120,92.695 158.195,93.300 158.287 M27.400 158.796 C 26.902 159.008,27.431 159.051,28.800 158.912 C 30.010 158.789,31.075 158.623,31.167 158.544 C 31.511 158.247,28.167 158.470,27.400 158.796 M53.233 158.544 C 53.325 158.623,54.300 158.791,55.400 158.918 C 56.687 159.067,57.115 159.026,56.600 158.803 C 55.836 158.472,52.886 158.245,53.233 158.544 M127.233 158.545 C 127.325 158.625,128.201 158.792,129.179 158.918 C 130.330 159.065,130.754 159.016,130.379 158.779 C 129.845 158.440,126.858 158.219,127.233 158.545 M159.119 158.698 C 160.944 158.772,163.824 158.772,165.519 158.697 C 167.214 158.622,165.720 158.561,162.200 158.562 C 158.680 158.562,157.294 158.624,159.119 158.698 M172.500 159.059 C 173.145 159.799,173.204 161.398,173.246 179.231 C 173.273 190.601,173.429 197.939,173.623 197.000 C 173.805 196.120,173.959 187.390,173.964 177.600 L 173.975 159.800 172.887 159.027 C 171.802 158.256,171.801 158.256,172.500 159.059 M195.721 158.698 C 197.877 158.771,201.297 158.770,203.321 158.698 C 205.344 158.625,203.580 158.566,199.400 158.567 C 195.220 158.567,193.564 158.626,195.721 158.698 M17.978 163.900 L 16.600 165.400 18.100 164.022 C 19.496 162.738,19.784 162.400,19.478 162.400 C 19.412 162.400,18.737 163.075,17.978 163.900 M90.120 168.800 C 90.120 170.010,90.195 170.505,90.287 169.900 C 90.378 169.295,90.378 168.305,90.287 167.700 C 90.195 167.095,90.120 167.590,90.120 168.800 M73.044 173.800 C 73.373 175.271,73.602 175.590,73.594 174.567 C 73.591 174.145,73.405 173.530,73.182 173.200 C 72.885 172.762,72.848 172.924,73.044 173.800 M92.000 176.925 C 92.000 176.994,92.585 177.579,93.300 178.225 L 94.600 179.400 93.425 178.100 C 92.330 176.888,92.000 176.616,92.000 176.925 M73.788 196.971 C 73.781 207.767,73.839 216.285,73.917 215.900 C 73.995 215.515,74.205 215.200,74.383 215.200 C 74.905 215.200,74.764 178.307,74.241 177.784 C 73.920 177.463,73.797 182.679,73.788 196.971 M12.982 205.600 C 12.982 214.290,13.035 217.845,13.100 213.500 C 13.164 209.155,13.164 202.045,13.100 197.700 C 13.035 193.355,12.982 196.910,12.982 205.600 M97.857 192.307 C 97.753 192.476,98.372 192.548,99.234 192.465 C 100.095 192.383,100.800 192.245,100.800 192.158 C 100.800 191.860,98.047 192.000,97.857 192.307 M73.260 219.067 C 73.227 219.544,73.084 220.264,72.941 220.667 C 72.742 221.231,72.795 221.296,73.172 220.949 C 73.442 220.701,73.585 219.981,73.491 219.349 C 73.370 218.539,73.302 218.456,73.260 219.067 M80.553 225.000 C 80.553 227.640,80.618 228.668,80.697 227.284 C 80.775 225.901,80.774 223.741,80.695 222.484 C 80.616 221.228,80.552 222.360,80.553 225.000 M103.600 224.600 C 103.600 225.880,103.777 226.800,104.023 226.800 C 104.284 226.800,104.400 225.956,104.325 224.600 C 104.259 223.390,104.069 222.400,103.902 222.400 C 103.736 222.400,103.600 223.390,103.600 224.600 M118.514 228.600 C 118.517 229.700,118.595 230.103,118.687 229.495 C 118.779 228.886,118.777 227.986,118.682 227.495 C 118.587 227.003,118.511 227.500,118.514 228.600 M12.920 232.800 C 12.920 234.010,12.995 234.505,13.087 233.900 C 13.178 233.295,13.178 232.305,13.087 231.700 C 12.995 231.095,12.920 231.590,12.920 232.800 M210.920 235.600 C 210.920 236.810,210.995 237.305,211.087 236.700 C 211.178 236.095,211.178 235.105,211.087 234.500 C 210.995 233.895,210.920 234.390,210.920 235.600 M52.584 236.427 C 52.128 237.164,52.732 237.325,53.410 236.648 C 53.969 236.088,53.975 236.000,53.452 236.000 C 53.119 236.000,52.729 236.192,52.584 236.427 M112.033 236.547 C 112.125 236.628,112.920 236.804,113.800 236.938 C 114.915 237.107,115.158 237.071,114.600 236.819 C 113.832 236.471,111.690 236.244,112.033 236.547 M44.711 237.093 C 45.651 237.178,47.091 237.177,47.911 237.091 C 48.730 237.005,47.960 236.936,46.200 236.937 C 44.440 236.939,43.770 237.009,44.711 237.093 M141.267 242.867 C 141.230 243.674,141.096 244.664,140.970 245.067 C 140.753 245.757,140.766 245.759,141.194 245.093 C 141.443 244.704,141.577 243.714,141.491 242.893 L 141.334 241.400 141.267 242.867 M12.928 246.800 C 12.928 248.230,13.001 248.815,13.089 248.100 C 13.178 247.385,13.178 246.215,13.089 245.500 C 13.001 244.785,12.928 245.370,12.928 246.800 M159.400 246.254 C 159.145 246.346,159.069 248.754,159.191 252.899 L 159.381 259.400 159.591 252.800 C 159.706 249.170,159.800 246.180,159.800 246.155 C 159.800 246.130,159.620 246.175,159.400 246.254 " stroke="none" fill="#244c84" fill-rule="evenodd"></path><path id="path8" d="M33.300 158.696 C 34.565 158.775,36.635 158.775,37.900 158.696 C 39.165 158.616,38.130 158.551,35.600 158.551 C 33.070 158.551,32.035 158.616,33.300 158.696 M104.900 158.699 C 109.025 158.764,115.775 158.764,119.900 158.699 C 124.025 158.634,120.650 158.581,112.400 158.581 C 104.150 158.581,100.775 158.634,104.900 158.699 M152.707 158.690 C 153.426 158.779,154.506 158.777,155.107 158.686 C 155.708 158.595,155.120 158.522,153.800 158.524 C 152.480 158.526,151.988 158.601,152.707 158.690 M169.305 158.687 C 169.914 158.779,170.814 158.777,171.305 158.682 C 171.797 158.587,171.300 158.511,170.200 158.514 C 169.100 158.517,168.697 158.595,169.305 158.687 M190.100 158.676 C 190.485 158.776,191.115 158.776,191.500 158.676 C 191.885 158.575,191.570 158.493,190.800 158.493 C 190.030 158.493,189.715 158.575,190.100 158.676 M207.505 158.683 C 208.002 158.779,208.722 158.775,209.105 158.675 C 209.487 158.575,209.080 158.496,208.200 158.501 C 207.320 158.505,207.007 158.587,207.505 158.683 M198.300 159.093 C 199.235 159.177,200.765 159.177,201.700 159.093 C 202.635 159.009,201.870 158.940,200.000 158.940 C 198.130 158.940,197.365 159.009,198.300 159.093 M210.298 159.238 C 210.685 159.735,210.819 168.091,210.900 196.838 L 211.004 233.800 211.102 196.749 C 211.194 161.871,211.159 159.666,210.500 159.149 C 209.880 158.663,209.857 158.673,210.298 159.238 M150.568 167.000 C 150.568 171.400,150.626 173.255,150.698 171.121 C 150.770 168.988,150.770 165.388,150.699 163.121 C 150.627 160.855,150.568 162.600,150.568 167.000 M172.985 178.800 C 172.985 189.470,173.037 193.835,173.100 188.500 C 173.163 183.165,173.163 174.435,173.100 169.100 C 173.037 163.765,172.985 168.130,172.985 178.800 M188.185 179.400 C 188.185 190.180,188.237 194.533,188.300 189.072 C 188.363 183.612,188.363 174.792,188.300 169.472 C 188.237 164.153,188.185 168.620,188.185 179.400 M89.720 162.800 C 89.720 164.010,89.795 164.505,89.887 163.900 C 89.978 163.295,89.978 162.305,89.887 161.700 C 89.795 161.095,89.720 161.590,89.720 162.800 M136.955 162.900 C 138.080 164.055,139.079 164.951,139.176 164.891 C 139.396 164.754,135.525 160.800,135.171 160.800 C 135.028 160.800,135.831 161.745,136.955 162.900 M67.781 164.921 C 69.112 166.308,70.280 167.383,70.377 167.311 C 70.581 167.160,65.944 162.400,65.594 162.400 C 65.467 162.400,66.451 163.534,67.781 164.921 M13.756 171.371 C 13.635 171.685,13.604 172.360,13.686 172.871 C 13.795 173.554,13.888 173.404,14.037 172.300 C 14.247 170.747,14.136 170.381,13.756 171.371 M141.391 206.600 C 141.391 225.960,141.440 233.939,141.500 224.330 C 141.560 214.722,141.560 198.882,141.500 189.130 C 141.440 179.379,141.391 187.240,141.391 206.600 M13.049 175.015 C 12.912 175.373,12.837 178.936,12.883 182.933 L 12.966 190.200 13.183 182.400 C 13.417 173.978,13.419 174.053,13.049 175.015 M39.516 181.497 C 40.899 181.575,43.059 181.574,44.316 181.495 C 45.572 181.416,44.440 181.352,41.800 181.353 C 39.160 181.353,38.132 181.418,39.516 181.497 M104.521 181.498 C 106.677 181.571,110.097 181.570,112.121 181.498 C 114.144 181.425,112.380 181.366,108.200 181.367 C 104.020 181.367,102.364 181.426,104.521 181.498 M118.524 186.600 C 118.526 187.920,118.601 188.412,118.690 187.693 C 118.779 186.974,118.777 185.894,118.686 185.293 C 118.595 184.692,118.522 185.280,118.524 186.600 M35.778 198.600 C 35.779 205.640,35.833 208.464,35.899 204.875 C 35.966 201.286,35.966 195.526,35.899 192.075 C 35.833 188.624,35.778 191.560,35.778 198.600 M51.375 197.400 C 51.375 203.340,51.431 205.826,51.499 202.924 C 51.567 200.022,51.567 195.162,51.499 192.124 C 51.431 189.086,51.375 191.460,51.375 197.400 M73.772 196.400 C 73.772 201.570,73.829 203.685,73.899 201.100 C 73.968 198.515,73.968 194.285,73.899 191.700 C 73.829 189.115,73.772 191.230,73.772 196.400 M150.484 198.800 C 150.445 204.190,150.544 208.809,150.706 209.064 C 150.868 209.319,150.953 206.079,150.895 201.864 C 150.727 189.504,150.562 188.277,150.484 198.800 M89.585 196.429 L 88.200 197.658 89.700 196.581 C 91.026 195.630,91.457 195.200,91.085 195.200 C 91.022 195.200,90.347 195.753,89.585 196.429 M81.754 207.377 C 81.632 207.694,81.603 208.279,81.689 208.677 C 81.787 209.128,81.924 208.912,82.054 208.100 C 82.271 206.738,82.130 206.396,81.754 207.377 M81.049 210.215 C 80.912 210.573,80.834 212.786,80.875 215.133 L 80.950 219.400 81.175 214.600 C 81.420 209.375,81.417 209.259,81.049 210.215 M111.111 212.693 C 112.051 212.778,113.491 212.777,114.311 212.691 C 115.130 212.605,114.360 212.536,112.600 212.537 C 110.840 212.539,110.170 212.609,111.111 212.693 M39.700 213.891 C 40.525 213.978,41.875 213.978,42.700 213.891 C 43.525 213.805,42.850 213.734,41.200 213.734 C 39.550 213.734,38.875 213.805,39.700 213.891 M105.123 214.700 C 104.418 215.521,103.890 216.400,104.101 216.400 C 104.183 216.400,104.649 215.860,105.137 215.200 C 106.101 213.896,106.092 213.572,105.123 214.700 M118.560 221.000 C 118.561 224.300,118.622 225.597,118.698 223.882 C 118.773 222.167,118.772 219.467,118.697 217.882 C 118.621 216.297,118.559 217.700,118.560 221.000 M103.480 219.159 C 102.945 224.049,103.406 234.579,104.034 231.800 C 104.462 229.909,104.440 226.800,104.000 226.800 C 103.780 226.800,103.600 225.810,103.600 224.600 C 103.600 223.390,103.780 222.400,104.000 222.400 C 104.461 222.400,104.487 220.516,104.057 218.200 C 103.762 216.609,103.759 216.615,103.480 219.159 M155.200 218.525 C 155.200 218.594,155.785 219.179,156.500 219.825 L 157.800 221.000 156.625 219.700 C 155.530 218.488,155.200 218.216,155.200 218.525 M12.954 226.000 C 12.954 228.750,13.018 229.875,13.096 228.500 C 13.174 227.125,13.174 224.875,13.096 223.500 C 13.018 222.125,12.954 223.250,12.954 226.000 M165.141 225.301 C 165.343 225.503,165.933 225.601,166.454 225.519 C 167.255 225.393,167.198 225.337,166.087 225.152 C 165.293 225.021,164.919 225.079,165.141 225.301 M172.700 226.298 C 174.735 226.371,178.065 226.371,180.100 226.298 C 182.135 226.225,180.470 226.166,176.400 226.166 C 172.330 226.166,170.665 226.225,172.700 226.298 M188.114 231.800 C 188.117 232.900,188.195 233.303,188.287 232.695 C 188.379 232.086,188.377 231.186,188.282 230.695 C 188.187 230.203,188.111 230.700,188.114 231.800 M80.958 236.600 C 80.958 239.680,81.021 240.887,81.097 239.282 C 81.173 237.678,81.173 235.158,81.096 233.682 C 81.019 232.207,80.957 233.520,80.958 236.600 M104.000 233.725 C 104.000 233.794,104.585 234.379,105.300 235.025 L 106.600 236.200 105.425 234.900 C 104.330 233.688,104.000 233.416,104.000 233.725 M59.600 234.800 L 58.600 235.120 59.700 235.160 C 60.305 235.182,60.800 235.020,60.800 234.800 C 60.800 234.580,60.755 234.418,60.700 234.440 C 60.645 234.462,60.150 234.624,59.600 234.800 M12.954 239.600 C 12.954 242.350,13.018 243.475,13.096 242.100 C 13.174 240.725,13.174 238.475,13.096 237.100 C 13.018 235.725,12.954 236.850,12.954 239.600 M56.000 235.600 L 54.200 235.880 56.076 235.940 C 57.108 235.973,58.064 235.820,58.200 235.600 C 58.336 235.380,58.302 235.227,58.124 235.260 C 57.946 235.293,56.990 235.446,56.000 235.600 M51.298 236.266 C 51.021 236.377,50.897 236.633,51.021 236.834 C 51.374 237.405,52.290 237.264,52.545 236.600 C 52.773 236.004,52.276 235.871,51.298 236.266 M210.501 237.400 C 210.505 238.280,210.587 238.593,210.683 238.095 C 210.779 237.598,210.775 236.878,210.675 236.495 C 210.575 236.113,210.496 236.520,210.501 237.400 M37.500 236.682 C 37.995 236.778,38.805 236.778,39.300 236.682 C 39.795 236.587,39.390 236.509,38.400 236.509 C 37.410 236.509,37.005 236.587,37.500 236.682 M41.200 236.716 C 41.200 236.889,43.161 237.024,45.557 237.016 C 47.953 237.007,49.708 236.868,49.457 236.706 C 48.839 236.309,41.200 236.318,41.200 236.716 M113.449 237.280 C 113.558 237.456,114.076 237.600,114.600 237.600 C 115.124 237.600,115.642 237.456,115.751 237.280 C 115.859 237.104,115.342 236.960,114.600 236.960 C 113.858 236.960,113.341 237.104,113.449 237.280 M35.760 243.400 C 35.761 246.700,35.822 247.997,35.898 246.282 C 35.973 244.567,35.972 241.867,35.897 240.282 C 35.821 238.697,35.759 240.100,35.760 243.400 M162.604 240.396 C 161.974 241.054,161.535 241.642,161.629 241.703 C 161.723 241.764,162.370 241.226,163.066 240.507 C 163.762 239.788,164.201 239.200,164.041 239.200 C 163.881 239.200,163.234 239.738,162.604 240.396 M159.762 253.000 C 159.762 256.520,159.824 257.906,159.898 256.081 C 159.972 254.256,159.972 251.376,159.897 249.681 C 159.822 247.986,159.761 249.480,159.762 253.000 M12.920 252.000 C 12.920 253.210,12.995 253.705,13.087 253.100 C 13.178 252.495,13.178 251.505,13.087 250.900 C 12.995 250.295,12.920 250.790,12.920 252.000 M35.467 250.267 C 34.981 250.753,35.190 251.179,35.800 250.945 C 36.130 250.818,36.400 250.554,36.400 250.357 C 36.400 249.938,35.849 249.884,35.467 250.267 M136.175 254.500 L 135.000 255.800 136.300 254.625 C 137.512 253.530,137.784 253.200,137.475 253.200 C 137.406 253.200,136.821 253.785,136.175 254.500 M194.200 258.800 L 193.000 259.105 194.076 259.153 C 194.668 259.179,195.264 259.020,195.400 258.800 C 195.536 258.580,195.592 258.421,195.524 258.447 C 195.456 258.473,194.860 258.632,194.200 258.800 M127.700 259.076 C 128.085 259.176,128.715 259.176,129.100 259.076 C 129.485 258.975,129.170 258.893,128.400 258.893 C 127.630 258.893,127.315 258.975,127.700 259.076 M23.107 259.890 C 23.826 259.979,24.906 259.977,25.507 259.886 C 26.108 259.795,25.520 259.722,24.200 259.724 C 22.880 259.726,22.388 259.801,23.107 259.890 M105.500 259.899 C 109.075 259.966,114.925 259.966,118.500 259.899 C 122.075 259.833,119.150 259.779,112.000 259.779 C 104.850 259.779,101.925 259.833,105.500 259.899 M167.926 259.900 C 172.176 259.964,179.016 259.964,183.126 259.899 C 187.237 259.834,183.760 259.781,175.400 259.781 C 167.040 259.782,163.677 259.835,167.926 259.900 " stroke="none" fill="#244c7c" fill-rule="evenodd"></path></g></svg>