<svg width="60" height="48" viewBox="0 0 60 48" fill="none" xmlns="http://www.w3.org/2000/svg">
<path d="M20.9239 0.699223C29.8575 2.35805 29.7642 11.9281 28.3463 17.3964C27.6257 20.1756 18.7968 29.5426 33.2401 25.0807C42.0665 22.3539 48.0691 32.4004 45.5155 34.3566C42.9618 36.3128 42.7122 36.8205 44.8256 41.0042C46.673 44.6614 42.1486 47.7247 40.761 47.9825C39.3733 48.2404 39.5294 45.5444 36.9593 46.4665C34.3892 47.3886 32.0408 49.7512 29.3887 45.5026C27.7011 42.799 29.1919 33.0931 28.7485 30.2122C28.3052 27.3312 27.1392 29.0296 26.3673 30.5065C22.1055 50.1157 10.2899 44.7549 10.6348 41.4311C10.9797 38.1073 12.0061 40.1391 5.39622 37.0706C-1.21361 34.002 -0.285701 29.8291 0.675025 27.7243C1.63575 25.6196 2.85096 27.0237 5.16654 22.5928C7.48213 18.162 8.08152 18.347 12.8439 17.7583C17.6063 17.1697 20.0696 22.0459 20.825 19.5349C21.5805 17.0238 9.43638 16.0209 5.24056 14.7262C4.00894 12.2881 4.59194 11.4389 7.12918 8.44854C9.66643 5.45817 7.09637 6.3804 8.22953 2.61376C12.3105 -3.33046 15.3896 2.76483 17.7708 2.4705C20.152 2.17617 18.7315 0.365797 20.9239 0.699223Z" fill="#22767C"/>
<path d="M28.8127 21.4468C28.9079 21.6955 28.7408 22.1914 28.6453 22.4082C28.4644 23.0099 29.0977 23.1239 29.1931 22.9071C29.2886 22.6902 30.0273 22.7554 30.2417 22.8494C30.4561 22.9434 31.3857 22.5749 31.5766 22.1413C31.7675 21.7076 31.672 21.9244 31.553 21.6136C31.4341 21.3027 31.9113 20.2185 31.2681 19.9365C30.6249 19.6545 28.6938 21.136 28.8127 21.4468Z" fill="#7C4C2E"/>
<path d="M28.0494 23.1814C27.8779 23.1062 27.9622 22.7983 28.0259 22.6537C28.1036 22.3377 27.5016 22.6825 27.4062 22.8994C27.3107 23.1162 27.3342 23.6439 27.2388 23.8607C27.1433 24.0776 27.0479 24.2944 27.2623 24.3884C27.4767 24.4824 27.8101 24.8873 27.9055 24.6705C28.001 24.4536 27.6676 24.0488 27.763 23.8319C27.8585 23.6151 28.2638 23.2754 28.0494 23.1814Z" fill="#7C4C2E"/>
<path d="M36.6315 17.6314C36.846 17.7254 36.6966 17.2477 36.8224 17.1978C37.1323 17.0749 37.1323 17.0749 37.4657 17.4798C37.7991 17.8846 38.4188 17.639 38.5377 17.9498C38.6567 18.2607 38.3704 18.9112 38.2514 18.6003C38.1324 18.2895 37.7036 18.1015 37.7271 18.6292C37.7506 19.1569 37.3453 19.4965 37.012 19.0917C36.6786 18.6868 36.1673 19.0073 36.1778 19.2433C36.2013 19.771 35.5748 19.865 35.5581 19.489C35.5346 18.9613 35.3202 18.8673 35.1293 19.301C35.1528 19.8286 34.4611 20.8189 34.1278 20.414C33.7944 20.0091 33.461 19.6043 32.6269 19.7559C31.7927 19.9076 31.7457 18.8522 31.7457 18.8522C32.3654 18.6066 33.295 18.2381 32.9616 17.8332C32.6283 17.4283 33.5108 16.0045 33.7252 16.0985C33.9397 16.1925 34.392 16.9082 34.9163 16.8794C35.4405 16.8505 35.5595 17.1614 35.7739 17.2554C35.9883 17.3494 36.3283 17.4985 36.6315 17.6314Z" fill="#7C4C2E"/>
<path d="M59.8431 14.8741C59.5952 14.9724 58.5327 14.5583 58.0324 14.3389C57.4127 14.5845 57.3172 14.8015 56.8649 14.0858C56.4125 13.37 54.101 13.3913 52.8616 13.8827C51.6221 14.374 50.9789 14.092 50.1448 14.2436C49.3106 14.3953 50.0963 15.5158 50.7396 15.7979C51.3828 16.0799 50.8336 17.9086 50.8571 18.4363C50.8806 18.964 51.7383 19.34 51.9527 19.434C52.1671 19.5281 52.405 20.1498 52.9293 20.1209C53.4536 20.0921 53.9059 20.8078 54.0484 21.6464C54.1909 22.4849 54.4053 22.5789 55.0485 22.8609C55.2394 22.4272 56.1925 22.5864 56.5024 22.4636C56.8122 22.3408 57.4555 22.6228 57.0986 21.6903C56.7417 20.7577 58.4114 18.1267 59.222 17.4474C60.0326 16.7681 60.153 14.7513 59.8431 14.8741Z" fill="#7C4C2E"/>
<path d="M49.6213 14.2726C50.8587 13.3233 49.416 12.4147 49.122 12.5015C47.3583 13.0216 46.1908 12.7684 45.9763 12.6744C45.7619 12.5804 45.1422 12.8261 45.1657 13.3538C45.1893 13.8815 45.0938 14.0983 44.3551 14.0331C44.2362 13.7223 43.1641 13.2522 42.4489 13.7147C41.4474 14.8278 43.5915 15.7678 43.8059 15.8618C44.0203 15.9559 44.4257 15.6162 44.831 15.2765C45.4272 14.5032 46.1409 16.3682 46.5698 16.5563C46.9986 16.7443 47.1176 17.0551 47.7138 16.2818C48.171 15.6886 47.6903 15.7541 49.6213 14.2726Z" fill="#7C4C2E"/>
<path d="M46.9494 18.0164C47.0258 17.843 46.6797 17.467 46.4971 17.3007C46.3223 17.3103 45.9966 17.3917 46.0918 17.6404C46.2107 17.9513 45.6865 17.9801 45.591 18.1969C45.4956 18.4138 45.8289 18.8186 46.2343 18.479C46.6396 18.1393 46.5441 18.3561 46.9494 18.0164Z" fill="#7C4C2E"/>
<path d="M42.804 16.9748C42.347 16.1536 41.2155 16.7095 40.7069 17.0901C40.9548 16.9918 41.6042 17.5698 41.8979 17.871C41.9694 17.9024 42.1743 17.9405 42.4222 17.8422C42.7321 17.7194 42.923 17.2857 42.804 16.9748Z" fill="#7C4C2E"/>
<path d="M41.0178 14.6398C40.8651 14.9867 40.3981 14.8854 39.8738 14.9142C39.2541 15.1598 39.6829 15.3479 39.1586 15.3767C38.9242 15.3896 38.6344 15.4056 38.3245 15.5284C38.0146 15.6512 37.8237 16.0849 37.9427 16.3957C38.0617 16.7066 39.8254 16.1864 39.9208 15.9696C40.0163 15.7528 41.0648 15.6951 41.3747 15.5723C41.6845 15.4494 41.7565 14.7048 41.6376 14.394C41.5186 14.0831 41.2087 14.2061 41.0178 14.6398Z" fill="#7C4C2E"/>
</svg>
