<?xml version="1.0" standalone="no"?>
<!DOCTYPE svg PUBLIC "-//W3C//DTD SVG 20010904//EN"
 "http://www.w3.org/TR/2001/REC-SVG-20010904/DTD/svg10.dtd">
<svg version="1.0" xmlns="http://www.w3.org/2000/svg"
 width="171.000000pt" height="198.000000pt" viewBox="0 0 171.000000 198.000000"
 preserveAspectRatio="xMidYMid meet">

<g transform="translate(0.000000,198.000000) scale(0.100000,-0.100000)"
fill="#ffffff" stroke="none">
<path d="M75 1951 c-68 -41 -65 -9 -72 -660 l-6 -590 84 -98 c47 -54 111 -128
142 -166 l57 -67 0 282 c0 156 3 293 6 306 6 19 13 22 60 22 l54 0 2 -489 3
-488 115 104 c251 228 258 233 311 233 26 0 60 -5 74 -10 40 -15 121 -103 205
-223 l74 -107 163 0 c90 0 163 2 163 5 0 3 -53 78 -117 166 -256 350 -295 404
-300 416 -3 7 128 149 301 325 247 252 303 314 289 320 -23 9 -226 10 -278 1
-35 -5 -54 -21 -145 -117 -309 -326 -563 -586 -571 -586 -5 0 -9 96 -9 220 0
169 3 220 13 220 59 0 199 25 250 43 83 30 132 69 179 141 59 91 79 175 79
320 0 67 -5 144 -12 171 -28 118 -106 218 -211 271 -99 50 -136 54 -518 54
-328 0 -357 -1 -385 -19z m730 -236 c51 -25 64 -38 89 -84 34 -64 44 -150 26
-236 -10 -50 -20 -68 -60 -107 -47 -48 -48 -48 -114 -48 l-66 0 0 121 0 122
-83 -5 c-147 -8 -197 -54 -197 -180 l0 -68 -55 0 -55 0 0 254 c0 234 1 255 18
260 9 2 111 4 227 3 l210 -2 60 -30z"/>
</g>
</svg>
